M48
;Layer_Color=9474304
;FILE_FORMAT=4:4
METRIC,LZ
;TYPE=PLATED
T1F00S00C0.3000
T3F00S00C1.0000
T4F00S00C1.1000
%
T01
X-00265Y-002775
X-00285Y-00216
X-00245Y-00217
X-00239Y-00163
X-00233Y-00135
X-00153Y-00157
X-0012Y-002375
Y-0025
X-00095Y-002625
X-000975Y-0028
Y-0029
X-000525Y-002625
X-0003Y-002825
X00001Y-0024
X-00025Y-0019
X-0004Y-0019
X-000725Y-001125
X0005Y-001675
X000675Y-00219
X001115Y-002405
X001175Y-0019
X00066Y-00288
X00042Y-00287
X-002Y-00295
Y-002575
X0033Y-001175
X00285Y00005
X001575Y000175
X00175Y0011
X00215Y001025
Y001375
Y0017
Y00205
X0011Y001325
X001125Y0003
X00065Y00025
X0005Y0001
X0002Y0004
Y00065
X-000075
X-00005Y000375
X-00055Y000525
Y000925
X-0004Y000075
X-00046Y-00045
X-00018Y-00044
X000125Y-00025
X-0007Y-0008
X-000925Y00015
X-001475Y-00015
X-002275Y-00025
Y-000425
X-00232Y-00086
X-002175Y-000875
X-00225Y00025
X-0019Y00075
X-00185Y000975
X-00162Y00069
X-002425Y00155
X-002475Y002375
X00115Y-00075
T03
X00167Y-00035
X00083
T04
X-003017Y-001744
Y-00149
Y-001236
X-002763
Y-00149
Y-001744
X-00222Y-002416
Y-00267
Y-002924
X003125Y001125
Y001379
Y001633
Y001887
X002274Y003
X00202
X001766
X001512
X00093Y002995
X000676
X000422
X000119
X-000135
X-000389
X-000691Y002995
X-000945
X-001199
X-001501Y002995
X-001755
X-002009
X-003Y000283
Y000029
Y-000225
Y-000479
Y-000733
M30
