G04 Layer_Color=8421504*
%FSLAX44Y44*%
%MOMM*%
G71*
G01*
G75*
%ADD10R,0.6000X2.2000*%
%ADD11R,3.5000X2.2000*%
%ADD12R,1.1000X1.2500*%
%ADD13R,0.3000X0.7000*%
%ADD14R,0.7000X0.3000*%
%ADD15R,1.3000X0.9000*%
%ADD16R,0.9000X1.3000*%
%ADD17R,0.5000X0.6000*%
%ADD18R,0.6000X0.5000*%
%ADD19R,0.9500X0.4000*%
%ADD20R,1.6000X1.4000*%
%ADD21R,1.9000X1.9000*%
%ADD22R,0.4000X1.3500*%
G04:AMPARAMS|DCode=23|XSize=5mm|YSize=5mm|CornerRadius=1.25mm|HoleSize=0mm|Usage=FLASHONLY|Rotation=90.000|XOffset=0mm|YOffset=0mm|HoleType=Round|Shape=RoundedRectangle|*
%AMROUNDEDRECTD23*
21,1,5.0000,2.5000,0,0,90.0*
21,1,2.5000,5.0000,0,0,90.0*
1,1,2.5000,1.2500,1.2500*
1,1,2.5000,1.2500,-1.2500*
1,1,2.5000,-1.2500,-1.2500*
1,1,2.5000,-1.2500,1.2500*
%
%ADD23ROUNDEDRECTD23*%
G04:AMPARAMS|DCode=24|XSize=6.5mm|YSize=6.5mm|CornerRadius=1.625mm|HoleSize=0mm|Usage=FLASHONLY|Rotation=90.000|XOffset=0mm|YOffset=0mm|HoleType=Round|Shape=RoundedRectangle|*
%AMROUNDEDRECTD24*
21,1,6.5000,3.2500,0,0,90.0*
21,1,3.2500,6.5000,0,0,90.0*
1,1,3.2500,1.6250,1.6250*
1,1,3.2500,1.6250,-1.6250*
1,1,3.2500,-1.6250,-1.6250*
1,1,3.2500,-1.6250,1.6250*
%
%ADD24ROUNDEDRECTD24*%
%ADD25R,1.2000X0.3000*%
%ADD26R,0.3000X1.2000*%
%ADD27R,2.5000X2.6000*%
D10*
X92100Y-109000D02*
D03*
X104800D02*
D03*
X117500D02*
D03*
X130200D02*
D03*
X142900D02*
D03*
X135400Y51500D02*
D03*
X122700D02*
D03*
X110000D02*
D03*
X97300D02*
D03*
X84600D02*
D03*
D11*
X117500Y-171000D02*
D03*
X110000Y113500D02*
D03*
D12*
X-159750Y-240000D02*
D03*
X-136250D02*
D03*
X-159750Y-279000D02*
D03*
X-136250D02*
D03*
D13*
X-5000Y12250D02*
D03*
X0D02*
D03*
X5000D02*
D03*
Y-12250D02*
D03*
X0D02*
D03*
X-5000D02*
D03*
D14*
X12250Y10000D02*
D03*
Y5000D02*
D03*
Y0D02*
D03*
Y-5000D02*
D03*
Y-10000D02*
D03*
X-12250D02*
D03*
Y-5000D02*
D03*
Y0D02*
D03*
Y5000D02*
D03*
Y10000D02*
D03*
D15*
X-177500Y-133000D02*
D03*
Y-152000D02*
D03*
X-127500Y-133000D02*
D03*
Y-152000D02*
D03*
X-249000Y-297000D02*
D03*
Y-278000D02*
D03*
X-17000Y31500D02*
D03*
Y50500D02*
D03*
X34000Y-9000D02*
D03*
Y10000D02*
D03*
X8491Y31982D02*
D03*
Y50982D02*
D03*
X34000Y32000D02*
D03*
Y51000D02*
D03*
X-34000Y-35500D02*
D03*
Y-54500D02*
D03*
X-58995Y-34982D02*
D03*
Y-53982D02*
D03*
X-59000Y-82000D02*
D03*
Y-101000D02*
D03*
X-83495Y-82482D02*
D03*
Y-101482D02*
D03*
X-240505Y-51001D02*
D03*
Y-32001D02*
D03*
X-215000Y-51500D02*
D03*
Y-32500D02*
D03*
X-173497Y103501D02*
D03*
Y84501D02*
D03*
X-197000Y103500D02*
D03*
Y84500D02*
D03*
X-67003Y61999D02*
D03*
Y80999D02*
D03*
X-42000Y61500D02*
D03*
Y80500D02*
D03*
X-56000Y27500D02*
D03*
Y8500D02*
D03*
X-6000Y241500D02*
D03*
Y222500D02*
D03*
X-168000Y241500D02*
D03*
Y222500D02*
D03*
X-87500Y242000D02*
D03*
Y223000D02*
D03*
X75000Y242000D02*
D03*
Y223000D02*
D03*
X67500Y-125500D02*
D03*
Y-106500D02*
D03*
Y-167500D02*
D03*
Y-148500D02*
D03*
X160000Y69000D02*
D03*
Y50000D02*
D03*
Y109500D02*
D03*
Y90500D02*
D03*
X-183000Y-277000D02*
D03*
Y-296000D02*
D03*
Y-238000D02*
D03*
Y-257000D02*
D03*
D16*
X81500Y22500D02*
D03*
X100500D02*
D03*
X85500Y-82500D02*
D03*
X104500D02*
D03*
X144500Y-82500D02*
D03*
X125500D02*
D03*
X142500Y22500D02*
D03*
X123500D02*
D03*
X-219500Y-74000D02*
D03*
X-238500D02*
D03*
X-285000Y-201000D02*
D03*
X-304000D02*
D03*
X-245500D02*
D03*
X-264500D02*
D03*
X-233500Y-177000D02*
D03*
X-252500D02*
D03*
X-252500Y-121000D02*
D03*
X-233500D02*
D03*
D17*
X-115150Y233500D02*
D03*
X-121500Y251500D02*
D03*
X-108500D02*
D03*
X47850Y233500D02*
D03*
X41500Y251500D02*
D03*
X54500D02*
D03*
X-195650Y233000D02*
D03*
X-202000Y251000D02*
D03*
X-189000D02*
D03*
X-33650Y233000D02*
D03*
X-40000Y251000D02*
D03*
X-27000D02*
D03*
D18*
X223500Y98650D02*
D03*
X241500Y105000D02*
D03*
Y92000D02*
D03*
X223500Y203650D02*
D03*
X241500Y210000D02*
D03*
Y197000D02*
D03*
X223500Y133650D02*
D03*
X241500Y140000D02*
D03*
Y127000D02*
D03*
X223500Y168650D02*
D03*
X241500Y175000D02*
D03*
Y162000D02*
D03*
D19*
X-110000Y-302000D02*
D03*
Y-295500D02*
D03*
Y-289000D02*
D03*
Y-282500D02*
D03*
Y-276000D02*
D03*
Y-269500D02*
D03*
Y-263000D02*
D03*
Y-256500D02*
D03*
Y-250000D02*
D03*
Y-243500D02*
D03*
Y-237000D02*
D03*
Y-230500D02*
D03*
Y-224000D02*
D03*
Y-217500D02*
D03*
X-40000D02*
D03*
Y-224000D02*
D03*
Y-230500D02*
D03*
Y-237000D02*
D03*
Y-243500D02*
D03*
Y-250000D02*
D03*
Y-256500D02*
D03*
Y-263000D02*
D03*
Y-269500D02*
D03*
Y-276000D02*
D03*
Y-282500D02*
D03*
Y-289000D02*
D03*
Y-295500D02*
D03*
Y-302000D02*
D03*
D20*
X86500Y-240500D02*
D03*
X22500D02*
D03*
D21*
X42500Y-265000D02*
D03*
X66500D02*
D03*
D22*
X67500Y-238250D02*
D03*
X61000D02*
D03*
X54500D02*
D03*
X48000D02*
D03*
X41500D02*
D03*
D23*
X-282500Y130000D02*
D03*
Y230000D02*
D03*
D24*
X285000Y-160000D02*
D03*
Y-40000D02*
D03*
D25*
X-195000Y35000D02*
D03*
Y30000D02*
D03*
Y25000D02*
D03*
Y20000D02*
D03*
Y15000D02*
D03*
Y10000D02*
D03*
Y5000D02*
D03*
Y0D02*
D03*
Y-5000D02*
D03*
Y-10000D02*
D03*
Y-15000D02*
D03*
Y-20000D02*
D03*
Y-25000D02*
D03*
Y-30000D02*
D03*
Y-35000D02*
D03*
Y-40000D02*
D03*
X-80000D02*
D03*
Y-35000D02*
D03*
Y-30000D02*
D03*
Y-25000D02*
D03*
Y-20000D02*
D03*
Y-15000D02*
D03*
Y-10000D02*
D03*
Y-5000D02*
D03*
Y0D02*
D03*
Y5000D02*
D03*
Y10000D02*
D03*
Y15000D02*
D03*
Y20000D02*
D03*
Y25000D02*
D03*
Y30000D02*
D03*
Y35000D02*
D03*
D26*
X-175000Y-60000D02*
D03*
X-170000D02*
D03*
X-165000D02*
D03*
X-160000D02*
D03*
X-155000D02*
D03*
X-150000D02*
D03*
X-145000D02*
D03*
X-140000D02*
D03*
X-135000D02*
D03*
X-130000D02*
D03*
X-125000D02*
D03*
X-120000D02*
D03*
X-115000D02*
D03*
X-110000D02*
D03*
X-105000D02*
D03*
X-100000D02*
D03*
Y55000D02*
D03*
X-105000D02*
D03*
X-110000D02*
D03*
X-115000D02*
D03*
X-120000D02*
D03*
X-125000D02*
D03*
X-130000D02*
D03*
X-135000D02*
D03*
X-140000D02*
D03*
X-145000D02*
D03*
X-150000D02*
D03*
X-155000D02*
D03*
X-160000D02*
D03*
X-165000D02*
D03*
X-170000D02*
D03*
X-175000D02*
D03*
D27*
X-176999Y-100008D02*
D03*
X-127999D02*
D03*
M02*
