G04 Layer_Color=8388736*
%FSLAX44Y44*%
%MOMM*%
G71*
G01*
G75*
%ADD43R,0.8000X2.4000*%
%ADD44R,3.7000X2.4000*%
%ADD45R,1.3000X1.4500*%
%ADD46R,0.3800X0.7800*%
%ADD47R,0.7800X0.3800*%
%ADD48R,1.5000X1.1000*%
%ADD49R,1.1000X1.5000*%
%ADD50R,0.7000X0.8000*%
%ADD51R,0.8000X0.7000*%
%ADD52R,1.0500X0.5000*%
%ADD53R,1.8000X1.6000*%
%ADD54R,2.1000X2.1000*%
%ADD55R,0.5000X1.4500*%
G04:AMPARAMS|DCode=56|XSize=5.2mm|YSize=5.2mm|CornerRadius=1.35mm|HoleSize=0mm|Usage=FLASHONLY|Rotation=90.000|XOffset=0mm|YOffset=0mm|HoleType=Round|Shape=RoundedRectangle|*
%AMROUNDEDRECTD56*
21,1,5.2000,2.5000,0,0,90.0*
21,1,2.5000,5.2000,0,0,90.0*
1,1,2.7000,1.2500,1.2500*
1,1,2.7000,1.2500,-1.2500*
1,1,2.7000,-1.2500,-1.2500*
1,1,2.7000,-1.2500,1.2500*
%
%ADD56ROUNDEDRECTD56*%
G04:AMPARAMS|DCode=57|XSize=6.7mm|YSize=6.7mm|CornerRadius=1.725mm|HoleSize=0mm|Usage=FLASHONLY|Rotation=90.000|XOffset=0mm|YOffset=0mm|HoleType=Round|Shape=RoundedRectangle|*
%AMROUNDEDRECTD57*
21,1,6.7000,3.2500,0,0,90.0*
21,1,3.2500,6.7000,0,0,90.0*
1,1,3.4500,1.6250,1.6250*
1,1,3.4500,1.6250,-1.6250*
1,1,3.4500,-1.6250,-1.6250*
1,1,3.4500,-1.6250,1.6250*
%
%ADD57ROUNDEDRECTD57*%
%ADD58R,1.2800X0.3800*%
%ADD59R,0.3800X1.2800*%
%ADD60R,2.7000X2.8000*%
%ADD61C,2.0000*%
%ADD62R,2.0000X2.0000*%
G04:AMPARAMS|DCode=63|XSize=2.2mm|YSize=1.4mm|CornerRadius=0.4mm|HoleSize=0mm|Usage=FLASHONLY|Rotation=90.000|XOffset=0mm|YOffset=0mm|HoleType=Round|Shape=RoundedRectangle|*
%AMROUNDEDRECTD63*
21,1,2.2000,0.6000,0,0,90.0*
21,1,1.4000,1.4000,0,0,90.0*
1,1,0.8000,0.3000,0.7000*
1,1,0.8000,0.3000,-0.7000*
1,1,0.8000,-0.3000,-0.7000*
1,1,0.8000,-0.3000,0.7000*
%
%ADD63ROUNDEDRECTD63*%
%ADD64O,2.2000X1.8000*%
%ADD65O,1.8000X2.2000*%
%ADD66R,1.8000X2.2000*%
%ADD67R,1.9000X1.9000*%
%ADD68C,1.9000*%
D43*
X92100Y-109000D02*
D03*
X104800D02*
D03*
X117500D02*
D03*
X130200D02*
D03*
X142900D02*
D03*
X135400Y51500D02*
D03*
X122700D02*
D03*
X110000D02*
D03*
X97300D02*
D03*
X84600D02*
D03*
D44*
X117500Y-171000D02*
D03*
X110000Y113500D02*
D03*
D45*
X-159750Y-240000D02*
D03*
X-136250D02*
D03*
X-159750Y-279000D02*
D03*
X-136250D02*
D03*
D46*
X-5000Y12250D02*
D03*
X0D02*
D03*
X5000D02*
D03*
Y-12250D02*
D03*
X0D02*
D03*
X-5000D02*
D03*
D47*
X12250Y10000D02*
D03*
Y5000D02*
D03*
Y0D02*
D03*
Y-5000D02*
D03*
Y-10000D02*
D03*
X-12250D02*
D03*
Y-5000D02*
D03*
Y0D02*
D03*
Y5000D02*
D03*
Y10000D02*
D03*
D48*
X-177500Y-133000D02*
D03*
Y-152000D02*
D03*
X-127500Y-133000D02*
D03*
Y-152000D02*
D03*
X-249000Y-297000D02*
D03*
Y-278000D02*
D03*
X-17000Y31500D02*
D03*
Y50500D02*
D03*
X34000Y-9000D02*
D03*
Y10000D02*
D03*
X8491Y31982D02*
D03*
Y50982D02*
D03*
X34000Y32000D02*
D03*
Y51000D02*
D03*
X-34000Y-35500D02*
D03*
Y-54500D02*
D03*
X-58995Y-34982D02*
D03*
Y-53982D02*
D03*
X-59000Y-82000D02*
D03*
Y-101000D02*
D03*
X-83495Y-82482D02*
D03*
Y-101482D02*
D03*
X-240505Y-51001D02*
D03*
Y-32001D02*
D03*
X-215000Y-51500D02*
D03*
Y-32500D02*
D03*
X-173497Y103501D02*
D03*
Y84501D02*
D03*
X-197000Y103500D02*
D03*
Y84500D02*
D03*
X-67003Y61999D02*
D03*
Y80999D02*
D03*
X-42000Y61500D02*
D03*
Y80500D02*
D03*
X-56000Y27500D02*
D03*
Y8500D02*
D03*
X-6000Y241500D02*
D03*
Y222500D02*
D03*
X-168000Y241500D02*
D03*
Y222500D02*
D03*
X-87500Y242000D02*
D03*
Y223000D02*
D03*
X75000Y242000D02*
D03*
Y223000D02*
D03*
X67500Y-125500D02*
D03*
Y-106500D02*
D03*
Y-167500D02*
D03*
Y-148500D02*
D03*
X160000Y69000D02*
D03*
Y50000D02*
D03*
Y109500D02*
D03*
Y90500D02*
D03*
X-183000Y-277000D02*
D03*
Y-296000D02*
D03*
Y-238000D02*
D03*
Y-257000D02*
D03*
D49*
X81500Y22500D02*
D03*
X100500D02*
D03*
X85500Y-82500D02*
D03*
X104500D02*
D03*
X144500Y-82500D02*
D03*
X125500D02*
D03*
X142500Y22500D02*
D03*
X123500D02*
D03*
X-219500Y-74000D02*
D03*
X-238500D02*
D03*
X-285000Y-201000D02*
D03*
X-304000D02*
D03*
X-245500D02*
D03*
X-264500D02*
D03*
X-233500Y-177000D02*
D03*
X-252500D02*
D03*
X-252500Y-121000D02*
D03*
X-233500D02*
D03*
D50*
X-115150Y233500D02*
D03*
X-121500Y251500D02*
D03*
X-108500D02*
D03*
X47850Y233500D02*
D03*
X41500Y251500D02*
D03*
X54500D02*
D03*
X-195650Y233000D02*
D03*
X-202000Y251000D02*
D03*
X-189000D02*
D03*
X-33650Y233000D02*
D03*
X-40000Y251000D02*
D03*
X-27000D02*
D03*
D51*
X223500Y98650D02*
D03*
X241500Y105000D02*
D03*
Y92000D02*
D03*
X223500Y203650D02*
D03*
X241500Y210000D02*
D03*
Y197000D02*
D03*
X223500Y133650D02*
D03*
X241500Y140000D02*
D03*
Y127000D02*
D03*
X223500Y168650D02*
D03*
X241500Y175000D02*
D03*
Y162000D02*
D03*
D52*
X-110000Y-302000D02*
D03*
Y-295500D02*
D03*
Y-289000D02*
D03*
Y-282500D02*
D03*
Y-276000D02*
D03*
Y-269500D02*
D03*
Y-263000D02*
D03*
Y-256500D02*
D03*
Y-250000D02*
D03*
Y-243500D02*
D03*
Y-237000D02*
D03*
Y-230500D02*
D03*
Y-224000D02*
D03*
Y-217500D02*
D03*
X-40000D02*
D03*
Y-224000D02*
D03*
Y-230500D02*
D03*
Y-237000D02*
D03*
Y-243500D02*
D03*
Y-250000D02*
D03*
Y-256500D02*
D03*
Y-263000D02*
D03*
Y-269500D02*
D03*
Y-276000D02*
D03*
Y-282500D02*
D03*
Y-289000D02*
D03*
Y-295500D02*
D03*
Y-302000D02*
D03*
D53*
X86500Y-240500D02*
D03*
X22500D02*
D03*
D54*
X42500Y-265000D02*
D03*
X66500D02*
D03*
D55*
X67500Y-238250D02*
D03*
X61000D02*
D03*
X54500D02*
D03*
X48000D02*
D03*
X41500D02*
D03*
D56*
X-282500Y130000D02*
D03*
Y230000D02*
D03*
D57*
X285000Y-160000D02*
D03*
Y-40000D02*
D03*
D58*
X-195000Y35000D02*
D03*
Y30000D02*
D03*
Y25000D02*
D03*
Y20000D02*
D03*
Y15000D02*
D03*
Y10000D02*
D03*
Y5000D02*
D03*
Y0D02*
D03*
Y-5000D02*
D03*
Y-10000D02*
D03*
Y-15000D02*
D03*
Y-20000D02*
D03*
Y-25000D02*
D03*
Y-30000D02*
D03*
Y-35000D02*
D03*
Y-40000D02*
D03*
X-80000D02*
D03*
Y-35000D02*
D03*
Y-30000D02*
D03*
Y-25000D02*
D03*
Y-20000D02*
D03*
Y-15000D02*
D03*
Y-10000D02*
D03*
Y-5000D02*
D03*
Y0D02*
D03*
Y5000D02*
D03*
Y10000D02*
D03*
Y15000D02*
D03*
Y20000D02*
D03*
Y25000D02*
D03*
Y30000D02*
D03*
Y35000D02*
D03*
D59*
X-175000Y-60000D02*
D03*
X-170000D02*
D03*
X-165000D02*
D03*
X-160000D02*
D03*
X-155000D02*
D03*
X-150000D02*
D03*
X-145000D02*
D03*
X-140000D02*
D03*
X-135000D02*
D03*
X-130000D02*
D03*
X-125000D02*
D03*
X-120000D02*
D03*
X-115000D02*
D03*
X-110000D02*
D03*
X-105000D02*
D03*
X-100000D02*
D03*
Y55000D02*
D03*
X-105000D02*
D03*
X-110000D02*
D03*
X-115000D02*
D03*
X-120000D02*
D03*
X-125000D02*
D03*
X-130000D02*
D03*
X-135000D02*
D03*
X-140000D02*
D03*
X-145000D02*
D03*
X-150000D02*
D03*
X-155000D02*
D03*
X-160000D02*
D03*
X-165000D02*
D03*
X-170000D02*
D03*
X-175000D02*
D03*
D60*
X-176999Y-100008D02*
D03*
X-127999D02*
D03*
D61*
X83000Y-35000D02*
D03*
D62*
X167000D02*
D03*
D63*
X21500Y-265000D02*
D03*
X87500D02*
D03*
D64*
X312500Y112500D02*
D03*
Y137900D02*
D03*
Y163300D02*
D03*
Y188700D02*
D03*
X-222000Y-292400D02*
D03*
Y-267000D02*
D03*
Y-241600D02*
D03*
X-300000Y-73300D02*
D03*
Y-47900D02*
D03*
Y-22500D02*
D03*
Y2900D02*
D03*
Y28300D02*
D03*
D65*
X-69100Y299500D02*
D03*
X-94500D02*
D03*
X93000Y299500D02*
D03*
X67600D02*
D03*
X-150100D02*
D03*
X-175500D02*
D03*
X11900D02*
D03*
X-13500D02*
D03*
X227400Y300000D02*
D03*
X202000D02*
D03*
X176600D02*
D03*
X151200D02*
D03*
D66*
X-119900Y299500D02*
D03*
X42200Y299500D02*
D03*
X-200900D02*
D03*
X-38900D02*
D03*
D67*
X-301700Y-123600D02*
D03*
X-276300D02*
D03*
D68*
X-301700Y-149000D02*
D03*
X-276300D02*
D03*
Y-174400D02*
D03*
X-301700D02*
D03*
M02*
