G04 Layer_Color=8388736*
%FSLAX44Y44*%
%MOMM*%
G71*
G01*
G75*
%ADD40C,0.2000*%
%ADD41C,0.1270*%
%ADD42C,0.2540*%
%ADD69C,0.1524*%
D40*
X-350000Y287500D02*
X-287500Y350000D01*
X-350000Y-287500D02*
X-287500Y-350000D01*
X300000D01*
X362500Y-287500D01*
Y287500D01*
X300000Y350000D02*
X362500Y287500D01*
X-287500Y350000D02*
X300000D01*
D41*
X-42422Y415118D02*
X-47500D01*
Y411309D01*
X-44961D01*
X-47500D01*
Y407500D01*
X-34804Y413848D02*
X-36074Y415118D01*
X-38613D01*
X-39883Y413848D01*
Y408770D01*
X-38613Y407500D01*
X-36074D01*
X-34804Y408770D01*
X-24647Y412578D02*
X-22108Y407500D01*
X-19569Y412578D01*
X-11952Y407500D02*
X-17030D01*
X-11952Y412578D01*
Y413848D01*
X-13221Y415118D01*
X-15760D01*
X-17030Y413848D01*
X-9412Y407500D02*
Y408770D01*
X-8143D01*
Y407500D01*
X-9412D01*
X-3064Y413848D02*
X-1795Y415118D01*
X744D01*
X2014Y413848D01*
Y408770D01*
X744Y407500D01*
X-1795D01*
X-3064Y408770D01*
Y413848D01*
X-137750Y444250D02*
Y451867D01*
X-135211Y449328D01*
X-132672Y451867D01*
Y444250D01*
X-126324D02*
X-128863D01*
X-130133Y445520D01*
Y448059D01*
X-128863Y449328D01*
X-126324D01*
X-125054Y448059D01*
Y446789D01*
X-130133D01*
X-117437Y449328D02*
X-121245D01*
X-122515Y448059D01*
Y445520D01*
X-121245Y444250D01*
X-117437D01*
X-114897Y451867D02*
Y444250D01*
Y448059D01*
X-113628Y449328D01*
X-111089D01*
X-109819Y448059D01*
Y444250D01*
X-106010Y449328D02*
X-103471D01*
X-102201Y448059D01*
Y444250D01*
X-106010D01*
X-107280Y445520D01*
X-106010Y446789D01*
X-102201D01*
X-99662Y444250D02*
Y449328D01*
X-95854D01*
X-94584Y448059D01*
Y444250D01*
X-92045D02*
X-89506D01*
X-90775D01*
Y449328D01*
X-92045D01*
X-80618D02*
X-84427D01*
X-85697Y448059D01*
Y445520D01*
X-84427Y444250D01*
X-80618D01*
X-76810Y449328D02*
X-74271D01*
X-73001Y448059D01*
Y444250D01*
X-76810D01*
X-78079Y445520D01*
X-76810Y446789D01*
X-73001D01*
X-70462Y444250D02*
X-67923D01*
X-69192D01*
Y451867D01*
X-70462D01*
X-56496D02*
Y444250D01*
X-52688D01*
X-51418Y445520D01*
Y450598D01*
X-52688Y451867D01*
X-56496D01*
X-48879Y449328D02*
Y444250D01*
Y446789D01*
X-47609Y448059D01*
X-46340Y449328D01*
X-45070D01*
X-39992D02*
X-37452D01*
X-36183Y448059D01*
Y444250D01*
X-39992D01*
X-41261Y445520D01*
X-39992Y446789D01*
X-36183D01*
X-33644Y449328D02*
Y445520D01*
X-32374Y444250D01*
X-31105Y445520D01*
X-29835Y444250D01*
X-28565Y445520D01*
Y449328D01*
X-26026Y444250D02*
X-23487D01*
X-24757D01*
Y449328D01*
X-26026D01*
X-19678Y444250D02*
Y449328D01*
X-15869D01*
X-14600Y448059D01*
Y444250D01*
X-9521Y441711D02*
X-8252D01*
X-6982Y442980D01*
Y449328D01*
X-10791D01*
X-12061Y448059D01*
Y445520D01*
X-10791Y444250D01*
X-6982D01*
X4444D02*
X6983D01*
X8253Y445520D01*
Y448059D01*
X6983Y449328D01*
X4444D01*
X3174Y448059D01*
Y445520D01*
X4444Y444250D01*
X12062D02*
Y450598D01*
Y448059D01*
X10792D01*
X13331D01*
X12062D01*
Y450598D01*
X13331Y451867D01*
X-559250Y-298633D02*
Y-304980D01*
X-557980Y-306250D01*
X-555441D01*
X-554172Y-304980D01*
Y-298633D01*
X-551632Y-306250D02*
Y-301172D01*
X-547824D01*
X-546554Y-302441D01*
Y-306250D01*
X-544015D02*
X-541476D01*
X-542745D01*
Y-301172D01*
X-544015D01*
X-536397Y-299902D02*
Y-301172D01*
X-537667D01*
X-535128D01*
X-536397D01*
Y-304980D01*
X-535128Y-306250D01*
X-531319D02*
X-527510D01*
X-526241Y-304980D01*
X-527510Y-303711D01*
X-530050D01*
X-531319Y-302441D01*
X-530050Y-301172D01*
X-526241D01*
X-523702D02*
X-522432D01*
Y-302441D01*
X-523702D01*
Y-301172D01*
Y-304980D02*
X-522432D01*
Y-306250D01*
X-523702D01*
Y-304980D01*
X-509736Y-306250D02*
Y-301172D01*
X-508466D01*
X-507197Y-302441D01*
Y-306250D01*
Y-302441D01*
X-505927Y-301172D01*
X-504658Y-302441D01*
Y-306250D01*
X-502118D02*
X-499579D01*
X-500849D01*
Y-301172D01*
X-502118D01*
X-495771Y-306250D02*
X-493231D01*
X-494501D01*
Y-298633D01*
X-495771D01*
X-553422Y-263652D02*
X-554691Y-262383D01*
X-557230D01*
X-558500Y-263652D01*
Y-264922D01*
X-557230Y-266191D01*
X-554691D01*
X-553422Y-267461D01*
Y-268730D01*
X-554691Y-270000D01*
X-557230D01*
X-558500Y-268730D01*
X-545804Y-264922D02*
X-549613D01*
X-550882Y-266191D01*
Y-268730D01*
X-549613Y-270000D01*
X-545804D01*
X-541995Y-264922D02*
X-539456D01*
X-538187Y-266191D01*
Y-270000D01*
X-541995D01*
X-543265Y-268730D01*
X-541995Y-267461D01*
X-538187D01*
X-535647Y-270000D02*
X-533108D01*
X-534378D01*
Y-262383D01*
X-535647D01*
X-525491Y-270000D02*
X-528030D01*
X-529299Y-268730D01*
Y-266191D01*
X-528030Y-264922D01*
X-525491D01*
X-524221Y-266191D01*
Y-267461D01*
X-529299D01*
X-521682Y-264922D02*
X-520412D01*
Y-266191D01*
X-521682D01*
Y-264922D01*
Y-268730D02*
X-520412D01*
Y-270000D01*
X-521682D01*
Y-268730D01*
X-507716Y-270000D02*
X-505177D01*
X-506447D01*
Y-262383D01*
X-507716Y-263652D01*
X-501368Y-264922D02*
X-500099D01*
Y-266191D01*
X-501368D01*
Y-264922D01*
Y-268730D02*
X-500099D01*
Y-270000D01*
X-501368D01*
Y-268730D01*
X-495020Y-270000D02*
X-492481D01*
X-493751D01*
Y-262383D01*
X-495020Y-263652D01*
D42*
X403203Y-375344D02*
X403711Y-349949D01*
X404961Y-287449D02*
X405468Y-262054D01*
X398327Y-365085D02*
X403711Y-349949D01*
X408485Y-365288D01*
X400186Y-272111D02*
X404961Y-287449D01*
X410344Y-272314D01*
X401171Y-349898D02*
X406250Y-350000D01*
X402421Y-287398D02*
X407500Y-287500D01*
X274600Y-350000D02*
X300000D01*
X361250D02*
X386650D01*
X284760Y-344920D02*
X300000Y-350000D01*
X284760Y-355080D02*
X300000Y-350000D01*
X361250D02*
X376490Y-344920D01*
X361250Y-350000D02*
X376490Y-355080D01*
X300000Y-352540D02*
Y-347460D01*
X361250Y-352540D02*
Y-347460D01*
X-287418Y365392D02*
X-92951D01*
X105615D02*
X300082D01*
X-287418D02*
X-272178Y370471D01*
X-287418Y365392D02*
X-272178Y360312D01*
X284842Y370471D02*
X300082Y365392D01*
X284842Y360312D02*
X300082Y365392D01*
X-287418Y362851D02*
Y367932D01*
X300082Y362851D02*
Y367932D01*
X-363642Y-287286D02*
Y-92721D01*
Y93149D02*
Y287714D01*
X-368722Y-272046D02*
X-363642Y-287286D01*
X-358562Y-272046D01*
X-368722Y272474D02*
X-363642Y287714D01*
X-358562Y272474D01*
X-366181Y-287286D02*
X-361101D01*
X-366181Y287714D02*
X-361101D01*
D69*
X439341Y-397114D02*
X439138Y-407269D01*
X429186Y-396911D01*
X426647Y-396860D01*
X424058Y-399348D01*
X423956Y-404426D01*
X426444Y-407015D01*
X439594Y-384421D02*
X424362Y-384116D01*
X431826Y-391884D01*
X432029Y-381730D01*
X424718Y-366345D02*
X427155Y-371474D01*
X432131Y-376652D01*
X437208Y-376754D01*
X439798Y-374266D01*
X439899Y-369189D01*
X437411Y-366599D01*
X434873Y-366549D01*
X432283Y-369036D01*
X432131Y-376652D01*
X440051Y-361573D02*
X437513Y-361522D01*
X437564Y-358983D01*
X440102Y-359034D01*
X440051Y-361573D01*
X440305Y-348879D02*
X440407Y-343802D01*
X440356Y-346341D01*
X425124Y-346036D01*
X427612Y-348626D01*
X440559Y-336186D02*
X440661Y-331109D01*
X440610Y-333647D01*
X425378Y-333343D01*
X427866Y-335932D01*
X441016Y-313338D02*
X440813Y-323493D01*
X430862Y-313135D01*
X428323Y-313084D01*
X425733Y-315572D01*
X425632Y-320649D01*
X428120Y-323239D01*
X441524Y-287951D02*
X436345Y-292927D01*
X431268Y-292826D01*
X426292Y-287647D01*
X441676Y-280335D02*
X431521Y-280132D01*
X431572Y-277594D01*
X434162Y-275106D01*
X441778Y-275258D01*
X434162Y-275106D01*
X431674Y-272516D01*
X434263Y-270028D01*
X441879Y-270181D01*
X441981Y-265103D02*
X442082Y-260026D01*
X442032Y-262565D01*
X431877Y-262362D01*
X431826Y-264900D01*
X442235Y-252410D02*
X442336Y-247333D01*
X442285Y-249871D01*
X427053Y-249567D01*
X427003Y-252105D01*
X442489Y-239717D02*
X437513Y-234538D01*
X432435Y-234436D01*
X427257Y-239412D01*
X252926Y-386566D02*
X242769D01*
X252926Y-376409D01*
Y-373870D01*
X250387Y-371331D01*
X245308D01*
X242769Y-373870D01*
X265622Y-386566D02*
Y-371331D01*
X258004Y-378949D01*
X268161D01*
X273239Y-386566D02*
X278318D01*
X275778D01*
Y-371331D01*
X273239Y-373870D01*
X285935Y-386566D02*
Y-384027D01*
X288474D01*
Y-386566D01*
X285935D01*
X298631D02*
X303709D01*
X301170D01*
Y-371331D01*
X298631Y-373870D01*
X318944Y-386566D02*
Y-371331D01*
X311327Y-378949D01*
X321483D01*
X336719Y-386566D02*
X326562D01*
X336719Y-376409D01*
Y-373870D01*
X334179Y-371331D01*
X329101D01*
X326562Y-373870D01*
X362110Y-386566D02*
X357032Y-381488D01*
Y-376409D01*
X362110Y-371331D01*
X369728Y-386566D02*
Y-376409D01*
X372267D01*
X374806Y-378949D01*
Y-386566D01*
Y-378949D01*
X377345Y-376409D01*
X379885Y-378949D01*
Y-386566D01*
X384963D02*
X390041D01*
X387502D01*
Y-376409D01*
X384963D01*
X397659Y-386566D02*
X402737D01*
X400198D01*
Y-371331D01*
X397659D01*
X410355Y-386566D02*
X415433Y-381488D01*
Y-376409D01*
X410355Y-371331D01*
X-80255Y356250D02*
X-90411D01*
X-80255Y366407D01*
Y368946D01*
X-82794Y371485D01*
X-87872D01*
X-90411Y368946D01*
X-75176D02*
X-72637Y371485D01*
X-67559D01*
X-65020Y368946D01*
Y366407D01*
X-67559Y363867D01*
X-70098D01*
X-67559D01*
X-65020Y361328D01*
Y358789D01*
X-67559Y356250D01*
X-72637D01*
X-75176Y358789D01*
X-59941Y356250D02*
X-54863D01*
X-57402D01*
Y371485D01*
X-59941Y368946D01*
X-37089Y356250D02*
X-47245D01*
X-37089Y366407D01*
Y368946D01*
X-39628Y371485D01*
X-44706D01*
X-47245Y368946D01*
X-32010Y356250D02*
Y358789D01*
X-29471D01*
Y356250D01*
X-32010D01*
X-19314Y358789D02*
X-16775Y356250D01*
X-11697D01*
X-9158Y358789D01*
Y368946D01*
X-11697Y371485D01*
X-16775D01*
X-19314Y368946D01*
Y366407D01*
X-16775Y363867D01*
X-9158D01*
X-4079Y358789D02*
X-1540Y356250D01*
X3538D01*
X6077Y358789D01*
Y368946D01*
X3538Y371485D01*
X-1540D01*
X-4079Y368946D01*
Y366407D01*
X-1540Y363867D01*
X6077D01*
X21312Y356250D02*
X11156D01*
X21312Y366407D01*
Y368946D01*
X18773Y371485D01*
X13695D01*
X11156Y368946D01*
X46704Y356250D02*
X41626Y361328D01*
Y366407D01*
X46704Y371485D01*
X54322Y356250D02*
Y366407D01*
X56861D01*
X59400Y363867D01*
Y356250D01*
Y363867D01*
X61939Y366407D01*
X64479Y363867D01*
Y356250D01*
X69557D02*
X74635D01*
X72096D01*
Y366407D01*
X69557D01*
X82253Y356250D02*
X87331D01*
X84792D01*
Y371485D01*
X82253D01*
X94949Y356250D02*
X100027Y361328D01*
Y366407D01*
X94949Y371485D01*
X-354500Y-80024D02*
Y-90181D01*
X-364657Y-80024D01*
X-367196D01*
X-369735Y-82563D01*
Y-87642D01*
X-367196Y-90181D01*
X-354500Y-64789D02*
Y-74946D01*
X-364657Y-64789D01*
X-367196D01*
X-369735Y-67328D01*
Y-72407D01*
X-367196Y-74946D01*
X-369735Y-49554D02*
X-367196Y-54633D01*
X-362118Y-59711D01*
X-357039D01*
X-354500Y-57172D01*
Y-52093D01*
X-357039Y-49554D01*
X-359578D01*
X-362118Y-52093D01*
Y-59711D01*
X-367196Y-44476D02*
X-369735Y-41936D01*
Y-36858D01*
X-367196Y-34319D01*
X-364657D01*
X-362118Y-36858D01*
Y-39397D01*
Y-36858D01*
X-359578Y-34319D01*
X-357039D01*
X-354500Y-36858D01*
Y-41936D01*
X-357039Y-44476D01*
X-354500Y-29241D02*
X-357039D01*
Y-26702D01*
X-354500D01*
Y-29241D01*
X-369735Y-16545D02*
Y-6388D01*
X-367196D01*
X-357039Y-16545D01*
X-354500D01*
X-367196Y-1310D02*
X-369735Y1230D01*
Y6308D01*
X-367196Y8847D01*
X-364657D01*
X-362118Y6308D01*
X-359578Y8847D01*
X-357039D01*
X-354500Y6308D01*
Y1230D01*
X-357039Y-1310D01*
X-359578D01*
X-362118Y1230D01*
X-364657Y-1310D01*
X-367196D01*
X-362118Y1230D02*
Y6308D01*
X-354500Y34239D02*
X-359578Y29160D01*
X-364657D01*
X-369735Y34239D01*
X-354500Y41856D02*
X-364657D01*
Y44395D01*
X-362118Y46935D01*
X-354500D01*
X-362118D01*
X-364657Y49474D01*
X-362118Y52013D01*
X-354500D01*
Y57091D02*
Y62170D01*
Y59631D01*
X-364657D01*
Y57091D01*
X-354500Y69787D02*
Y74866D01*
Y72326D01*
X-369735D01*
Y69787D01*
X-354500Y82483D02*
X-359578Y87562D01*
X-364657D01*
X-369735Y82483D01*
M02*
