G04 Layer_Physical_Order=1*
G04 Layer_Color=255*
%FSLAX44Y44*%
%MOMM*%
G71*
G01*
G75*
%ADD10R,0.6000X2.2000*%
%ADD11R,3.5000X2.2000*%
%ADD12R,1.1000X1.2500*%
%ADD13R,0.3000X0.7000*%
%ADD14R,0.7000X0.3000*%
%ADD15R,1.3000X0.9000*%
%ADD16R,0.9000X1.3000*%
%ADD17R,0.5000X0.6000*%
%ADD18R,0.6000X0.5000*%
%ADD19R,0.9500X0.4000*%
%ADD20R,1.6000X1.4000*%
%ADD21R,1.9000X1.9000*%
%ADD22R,0.4000X1.3500*%
G04:AMPARAMS|DCode=23|XSize=5mm|YSize=5mm|CornerRadius=1.25mm|HoleSize=0mm|Usage=FLASHONLY|Rotation=90.000|XOffset=0mm|YOffset=0mm|HoleType=Round|Shape=RoundedRectangle|*
%AMROUNDEDRECTD23*
21,1,5.0000,2.5000,0,0,90.0*
21,1,2.5000,5.0000,0,0,90.0*
1,1,2.5000,1.2500,1.2500*
1,1,2.5000,1.2500,-1.2500*
1,1,2.5000,-1.2500,-1.2500*
1,1,2.5000,-1.2500,1.2500*
%
%ADD23ROUNDEDRECTD23*%
G04:AMPARAMS|DCode=24|XSize=6.5mm|YSize=6.5mm|CornerRadius=1.625mm|HoleSize=0mm|Usage=FLASHONLY|Rotation=90.000|XOffset=0mm|YOffset=0mm|HoleType=Round|Shape=RoundedRectangle|*
%AMROUNDEDRECTD24*
21,1,6.5000,3.2500,0,0,90.0*
21,1,3.2500,6.5000,0,0,90.0*
1,1,3.2500,1.6250,1.6250*
1,1,3.2500,1.6250,-1.6250*
1,1,3.2500,-1.6250,-1.6250*
1,1,3.2500,-1.6250,1.6250*
%
%ADD24ROUNDEDRECTD24*%
%ADD25R,1.2000X0.3000*%
%ADD26R,0.3000X1.2000*%
%ADD27R,2.5000X2.6000*%
%ADD28C,0.3000*%
%ADD29C,0.4000*%
%ADD30C,1.4000*%
%ADD31C,1.8000*%
%ADD32R,1.8000X1.8000*%
G04:AMPARAMS|DCode=33|XSize=2mm|YSize=1.2mm|CornerRadius=0.3mm|HoleSize=0mm|Usage=FLASHONLY|Rotation=90.000|XOffset=0mm|YOffset=0mm|HoleType=Round|Shape=RoundedRectangle|*
%AMROUNDEDRECTD33*
21,1,2.0000,0.6000,0,0,90.0*
21,1,1.4000,1.2000,0,0,90.0*
1,1,0.6000,0.3000,0.7000*
1,1,0.6000,0.3000,-0.7000*
1,1,0.6000,-0.3000,-0.7000*
1,1,0.6000,-0.3000,0.7000*
%
%ADD33ROUNDEDRECTD33*%
%ADD34O,2.0000X1.6000*%
%ADD35O,1.6000X2.0000*%
%ADD36R,1.6000X2.0000*%
%ADD37R,1.7000X1.7000*%
%ADD38C,1.7000*%
%ADD39C,0.6000*%
D10*
X92100Y-109000D02*
D03*
X104800D02*
D03*
X117500D02*
D03*
X130200D02*
D03*
X142900D02*
D03*
X135400Y51500D02*
D03*
X122700D02*
D03*
X110000D02*
D03*
X97300D02*
D03*
X84600D02*
D03*
D11*
X117500Y-171000D02*
D03*
X110000Y113500D02*
D03*
D12*
X-159750Y-240000D02*
D03*
X-136250D02*
D03*
X-159750Y-279000D02*
D03*
X-136250D02*
D03*
D13*
X-5000Y12250D02*
D03*
X0D02*
D03*
X5000D02*
D03*
Y-12250D02*
D03*
X0D02*
D03*
X-5000D02*
D03*
D14*
X12250Y10000D02*
D03*
Y5000D02*
D03*
Y0D02*
D03*
Y-5000D02*
D03*
Y-10000D02*
D03*
X-12250D02*
D03*
Y-5000D02*
D03*
Y0D02*
D03*
Y5000D02*
D03*
Y10000D02*
D03*
D15*
X-177500Y-133000D02*
D03*
Y-152000D02*
D03*
X-127500Y-133000D02*
D03*
Y-152000D02*
D03*
X-249000Y-297000D02*
D03*
Y-278000D02*
D03*
X-17000Y31500D02*
D03*
Y50500D02*
D03*
X34000Y-9000D02*
D03*
Y10000D02*
D03*
X8491Y31982D02*
D03*
Y50982D02*
D03*
X34000Y32000D02*
D03*
Y51000D02*
D03*
X-34000Y-35500D02*
D03*
Y-54500D02*
D03*
X-58995Y-34982D02*
D03*
Y-53982D02*
D03*
X-59000Y-82000D02*
D03*
Y-101000D02*
D03*
X-83495Y-82482D02*
D03*
Y-101482D02*
D03*
X-240505Y-51001D02*
D03*
Y-32001D02*
D03*
X-215000Y-51500D02*
D03*
Y-32500D02*
D03*
X-173497Y103501D02*
D03*
Y84501D02*
D03*
X-197000Y103500D02*
D03*
Y84500D02*
D03*
X-67003Y61999D02*
D03*
Y80999D02*
D03*
X-42000Y61500D02*
D03*
Y80500D02*
D03*
X-56000Y27500D02*
D03*
Y8500D02*
D03*
X-6000Y241500D02*
D03*
Y222500D02*
D03*
X-168000Y241500D02*
D03*
Y222500D02*
D03*
X-87500Y242000D02*
D03*
Y223000D02*
D03*
X75000Y242000D02*
D03*
Y223000D02*
D03*
X67500Y-125500D02*
D03*
Y-106500D02*
D03*
Y-167500D02*
D03*
Y-148500D02*
D03*
X160000Y69000D02*
D03*
Y50000D02*
D03*
Y109500D02*
D03*
Y90500D02*
D03*
X-183000Y-277000D02*
D03*
Y-296000D02*
D03*
Y-238000D02*
D03*
Y-257000D02*
D03*
D16*
X81500Y22500D02*
D03*
X100500D02*
D03*
X85500Y-82500D02*
D03*
X104500D02*
D03*
X144500Y-82500D02*
D03*
X125500D02*
D03*
X142500Y22500D02*
D03*
X123500D02*
D03*
X-219500Y-74000D02*
D03*
X-238500D02*
D03*
X-285000Y-201000D02*
D03*
X-304000D02*
D03*
X-245500D02*
D03*
X-264500D02*
D03*
X-233500Y-177000D02*
D03*
X-252500D02*
D03*
X-252500Y-121000D02*
D03*
X-233500D02*
D03*
D17*
X-115150Y233500D02*
D03*
X-121500Y251500D02*
D03*
X-108500D02*
D03*
X47850Y233500D02*
D03*
X41500Y251500D02*
D03*
X54500D02*
D03*
X-195650Y233000D02*
D03*
X-202000Y251000D02*
D03*
X-189000D02*
D03*
X-33650Y233000D02*
D03*
X-40000Y251000D02*
D03*
X-27000D02*
D03*
D18*
X223500Y98650D02*
D03*
X241500Y105000D02*
D03*
Y92000D02*
D03*
X223500Y203650D02*
D03*
X241500Y210000D02*
D03*
Y197000D02*
D03*
X223500Y133650D02*
D03*
X241500Y140000D02*
D03*
Y127000D02*
D03*
X223500Y168650D02*
D03*
X241500Y175000D02*
D03*
Y162000D02*
D03*
D19*
X-110000Y-302000D02*
D03*
Y-295500D02*
D03*
Y-289000D02*
D03*
Y-282500D02*
D03*
Y-276000D02*
D03*
Y-269500D02*
D03*
Y-263000D02*
D03*
Y-256500D02*
D03*
Y-250000D02*
D03*
Y-243500D02*
D03*
Y-237000D02*
D03*
Y-230500D02*
D03*
Y-224000D02*
D03*
Y-217500D02*
D03*
X-40000D02*
D03*
Y-224000D02*
D03*
Y-230500D02*
D03*
Y-237000D02*
D03*
Y-243500D02*
D03*
Y-250000D02*
D03*
Y-256500D02*
D03*
Y-263000D02*
D03*
Y-269500D02*
D03*
Y-276000D02*
D03*
Y-282500D02*
D03*
Y-289000D02*
D03*
Y-295500D02*
D03*
Y-302000D02*
D03*
D20*
X86500Y-240500D02*
D03*
X22500D02*
D03*
D21*
X42500Y-265000D02*
D03*
X66500D02*
D03*
D22*
X67500Y-238250D02*
D03*
X61000D02*
D03*
X54500D02*
D03*
X48000D02*
D03*
X41500D02*
D03*
D23*
X-282500Y130000D02*
D03*
Y230000D02*
D03*
D24*
X285000Y-160000D02*
D03*
Y-40000D02*
D03*
D25*
X-195000Y35000D02*
D03*
Y30000D02*
D03*
Y25000D02*
D03*
Y20000D02*
D03*
Y15000D02*
D03*
Y10000D02*
D03*
Y5000D02*
D03*
Y0D02*
D03*
Y-5000D02*
D03*
Y-10000D02*
D03*
Y-15000D02*
D03*
Y-20000D02*
D03*
Y-25000D02*
D03*
Y-30000D02*
D03*
Y-35000D02*
D03*
Y-40000D02*
D03*
X-80000D02*
D03*
Y-35000D02*
D03*
Y-30000D02*
D03*
Y-25000D02*
D03*
Y-20000D02*
D03*
Y-15000D02*
D03*
Y-10000D02*
D03*
Y-5000D02*
D03*
Y0D02*
D03*
Y5000D02*
D03*
Y10000D02*
D03*
Y15000D02*
D03*
Y20000D02*
D03*
Y25000D02*
D03*
Y30000D02*
D03*
Y35000D02*
D03*
D26*
X-175000Y-60000D02*
D03*
X-170000D02*
D03*
X-165000D02*
D03*
X-160000D02*
D03*
X-155000D02*
D03*
X-150000D02*
D03*
X-145000D02*
D03*
X-140000D02*
D03*
X-135000D02*
D03*
X-130000D02*
D03*
X-125000D02*
D03*
X-120000D02*
D03*
X-115000D02*
D03*
X-110000D02*
D03*
X-105000D02*
D03*
X-100000D02*
D03*
Y55000D02*
D03*
X-105000D02*
D03*
X-110000D02*
D03*
X-115000D02*
D03*
X-120000D02*
D03*
X-125000D02*
D03*
X-130000D02*
D03*
X-135000D02*
D03*
X-140000D02*
D03*
X-145000D02*
D03*
X-150000D02*
D03*
X-155000D02*
D03*
X-160000D02*
D03*
X-165000D02*
D03*
X-170000D02*
D03*
X-175000D02*
D03*
D27*
X-176999Y-100008D02*
D03*
X-127999D02*
D03*
D28*
X-265000Y-277500D02*
X-264500Y-278000D01*
X-249000D01*
X-275000Y237500D02*
X-247500D01*
X-282500Y230000D02*
X-275000Y237500D01*
X-226600Y-297000D02*
X-222000Y-292400D01*
X-249000Y-297000D02*
X-226600D01*
X-152500Y-152000D02*
X-127500D01*
X-177500D02*
X-152500D01*
X-153000Y-157000D02*
X-152500Y-156500D01*
Y-152000D01*
X-268500Y-161000D02*
X-252500Y-177000D01*
X-284000Y-161000D02*
X-268500D01*
X-233500Y-134500D02*
X-233000Y-135000D01*
X-233500Y-134500D02*
Y-121000D01*
X-245500Y-216500D02*
X-245000Y-217000D01*
X-245500Y-216500D02*
Y-201000D01*
X-285000Y-216000D02*
Y-201000D01*
X-264500D02*
Y-192500D01*
X-276300Y-180700D02*
X-264500Y-192500D01*
X-276300Y-180700D02*
Y-174400D01*
X-304000Y-176700D02*
X-301700Y-174400D01*
X-304000Y-201000D02*
Y-176700D01*
X-255100Y-123600D02*
X-252500Y-121000D01*
X-276300Y-123600D02*
X-255100D01*
X-276300Y-149000D02*
Y-147629D01*
X-288300Y-135629D02*
X-276300Y-147629D01*
X-296000Y-135000D02*
X-289700Y-141300D01*
X-301700Y-123600D02*
X-296000Y-129300D01*
Y-135000D02*
Y-129300D01*
X-289700Y-155300D02*
Y-141300D01*
Y-155300D02*
X-284000Y-161000D01*
X-288300Y-104300D02*
X-247000Y-63000D01*
X-195500D01*
X-239000Y-163000D02*
X-233500Y-168500D01*
Y-177000D02*
Y-168500D01*
X-238500Y-79500D02*
X-232000Y-86000D01*
X-238500Y-79500D02*
Y-74000D01*
X-262500Y-30500D02*
X-250500Y-18500D01*
X-127999Y-100008D02*
X-127500Y-100508D01*
Y-133000D02*
Y-100508D01*
X-178000Y-101009D02*
X-177500Y-101509D01*
Y-133000D02*
Y-101509D01*
X215000Y205000D02*
X216350Y203650D01*
X223500D01*
X215000Y170000D02*
X216350Y168650D01*
X223500D01*
X215000Y102500D02*
X218850Y98650D01*
X223500D01*
X-51929Y142000D02*
X201308D01*
X238308Y105000D02*
X241500D01*
X201308Y142000D02*
X238308Y105000D01*
X215000Y137500D02*
X218850Y133650D01*
X223500D01*
X234500Y147000D02*
X241500Y140000D01*
X-54000Y147000D02*
X234500D01*
X218500Y152000D02*
X241500Y175000D01*
X-56645Y152000D02*
X218500D01*
X188500Y157000D02*
X241500Y210000D01*
X-58716Y157000D02*
X188500D01*
X100500Y22500D02*
X112000D01*
X123500D01*
X112000Y29500D02*
X112500Y30000D01*
X112000Y22500D02*
Y29500D01*
X-100000Y-282500D02*
X-97500Y-280000D01*
X-110000Y-282500D02*
X-100000D01*
X-98500Y-289000D02*
X-97500Y-290000D01*
X-110000Y-289000D02*
X-98500D01*
X285000Y-40000D02*
Y5000D01*
X-228002Y-51001D02*
X-215499D01*
X-240505D02*
X-228002D01*
Y-43002D02*
X-227500Y-42500D01*
X-228002Y-51001D02*
Y-43002D01*
X-202450Y-20000D02*
X-195000D01*
X-203950Y-18500D02*
X-202450Y-20000D01*
X-250500Y-18500D02*
X-203950D01*
X-228002Y-32001D02*
X-215499D01*
X-240505D02*
X-228002D01*
X-227500Y-31498D02*
Y-25000D01*
X-228002Y-32001D02*
X-227500Y-31498D01*
X-219500Y-85500D02*
X-217500Y-87500D01*
X-219500Y-85500D02*
Y-74000D01*
X-72500Y-101000D02*
X-59000D01*
X-83013D02*
X-72500D01*
Y-112500D02*
Y-101000D01*
X12250Y-24750D02*
X12500Y-25000D01*
X12250Y-24750D02*
Y-10000D01*
X-46239Y-35500D02*
X-34000D01*
X-58477D02*
X-46239D01*
X-58995Y-53982D02*
X-34518D01*
X21254Y51000D02*
X34000D01*
X8509D02*
X21254D01*
X20000Y65000D02*
X21254Y63746D01*
Y51000D02*
Y63746D01*
Y32000D02*
X34000D01*
X8509D02*
X21254D01*
X20000Y40000D02*
X21254Y38746D01*
Y32000D02*
Y38746D01*
X-55000Y61500D02*
X-42000D01*
X-66504D02*
X-55000D01*
Y52500D02*
Y61500D01*
Y80500D02*
X-42000D01*
X-66504D02*
X-55000D01*
Y92500D01*
X-67003Y80999D02*
X-66504Y80500D01*
X-41000Y8500D02*
X-40000Y7500D01*
X-56000Y8500D02*
X-41000D01*
X-7500Y60000D02*
Y65000D01*
X-17000Y50500D02*
X-7500Y60000D01*
X34000Y10000D02*
X50000D01*
X50000Y-167500D02*
X67500D01*
X117500Y-190000D02*
Y-171000D01*
Y-90500D02*
X125500Y-82500D01*
X117500Y-109000D02*
Y-90500D01*
X100500Y35750D02*
X110000Y45250D01*
Y51500D01*
X100500Y22500D02*
Y35750D01*
X160500Y110000D02*
X175000D01*
X160000Y109500D02*
X160500Y110000D01*
X110000Y132500D02*
X110000Y132500D01*
X110000Y113500D02*
Y132500D01*
X-40000Y-190000D02*
Y-75000D01*
X-195500Y-63000D02*
X-147500Y-15000D01*
X-80000Y15000D02*
X-80000Y15000D01*
X-92500Y15000D02*
X-80000D01*
X-99000Y29000D02*
X-95000Y33000D01*
X-99000Y-10500D02*
X-89500Y-20000D01*
X-99000Y-10500D02*
Y29000D01*
X-95000Y49953D02*
X-73952Y71000D01*
X-95000Y33000D02*
Y49953D01*
X-25000Y-190000D02*
X-20000Y-195000D01*
X-200000Y-257500D02*
X-199500Y-257000D01*
X-183000D01*
X-200000Y-295000D02*
X-199000Y-296000D01*
X-183000D01*
X-52500Y-262500D02*
X-52000Y-263000D01*
X-40000D01*
X-20000Y-287500D02*
Y-195000D01*
X-34500Y-302000D02*
X-20000Y-287500D01*
X-40000Y-276000D02*
X-34800D01*
X-15000Y-235000D02*
X0Y-220000D01*
X-15000Y-290000D02*
Y-235000D01*
X-32500Y-307500D02*
X-15000Y-290000D01*
X-10000Y-237071D02*
X1571Y-225500D01*
X-10000Y-292500D02*
Y-237071D01*
X-30000Y-312500D02*
X-10000Y-292500D01*
X-31750Y-272950D02*
Y-76179D01*
X-60787Y162000D02*
X-35000D01*
X54500Y251500D01*
X-161750Y-238000D02*
X-159750Y-240000D01*
X-183000Y-238000D02*
X-161750D01*
Y-277000D02*
X-159750Y-279000D01*
X-183000Y-277000D02*
X-161750D01*
X54500Y-238250D02*
Y-230479D01*
X0Y-220000D02*
X44021D01*
X48000Y-238250D02*
Y-231050D01*
X42450Y-225500D02*
X48000Y-231050D01*
X1571Y-225500D02*
X42450D01*
X44021Y-220000D02*
X54500Y-230479D01*
X-104800Y-224000D02*
X-80000Y-248800D01*
Y-287071D02*
Y-248800D01*
Y-287071D02*
X-54571Y-312500D01*
X-30000D01*
X-52500Y-307500D02*
X-32500D01*
X-75000Y-285000D02*
X-52500Y-307500D01*
X-75000Y-285000D02*
Y-246729D01*
X-104229Y-217500D02*
X-75000Y-246729D01*
X-110000Y-217500D02*
X-104229D01*
X-110000Y-224000D02*
X-104800D01*
X-40000Y-302000D02*
X-34500D01*
X-34800Y-276000D02*
X-31750Y-272950D01*
X-195000Y25000D02*
X-165429D01*
X-195000Y20000D02*
X-167500D01*
X-115000Y-69500D02*
X-102018Y-82482D01*
X-83495D01*
X-90089Y-101482D02*
X-83495D01*
X-120000Y-71571D02*
X-90089Y-101482D01*
X-117250Y-269500D02*
X-110000D01*
X-126750Y-279000D02*
X-117250Y-269500D01*
X-119500Y-263000D02*
X-110000D01*
X-136250Y-246250D02*
X-119500Y-263000D01*
X-136250Y-246250D02*
Y-240000D01*
Y-279000D02*
X-126750D01*
X152500Y69000D02*
X155000D01*
X160000D01*
X-80000Y25000D02*
X-58500D01*
X-56000Y27500D01*
X-21000Y5000D02*
X-12250D01*
X-32000Y16000D02*
Y67450D01*
X-35550Y71000D02*
X-32000Y67450D01*
X-73952Y71000D02*
X-35550D01*
X-80000Y35000D02*
Y49003D01*
X-170000Y55000D02*
Y81004D01*
X-165000Y55000D02*
Y62450D01*
X-162000Y65450D01*
Y69000D01*
X-173497Y84501D02*
X-170000Y81004D01*
X-207500Y97500D02*
X-201499Y103501D01*
X-207500Y79050D02*
Y97500D01*
X41500Y251500D02*
Y298800D01*
X-40000Y251000D02*
Y298400D01*
X-121500Y251500D02*
Y297900D01*
X-202000Y251000D02*
Y298400D01*
X301600Y127000D02*
X312500Y137900D01*
X-150000Y55000D02*
Y86929D01*
X-277900Y25000D02*
X-225000D01*
X-300000Y2900D02*
X-277900Y25000D01*
X-175000Y-60000D02*
X-175000Y-60000D01*
X-175000Y-68000D02*
Y-60000D01*
X-181000Y-74000D02*
X-175000Y-68000D01*
X-219500Y-74000D02*
X-181000D01*
X-215000Y-35000D02*
X-195000D01*
X-215000D02*
Y-32500D01*
X-206500Y-51500D02*
X-195000Y-40000D01*
X-215000Y-51500D02*
X-206500D01*
X-215499Y-51001D02*
X-215000Y-51500D01*
X-215499Y-32001D02*
X-215000Y-32500D01*
X-300000Y-22500D02*
X-272500Y5000D01*
X-195000D01*
X-300000Y28300D02*
X-293300Y35000D01*
X-195000D01*
X-150000Y-78008D02*
Y-60000D01*
X-155000Y-78009D02*
Y-60000D01*
X-176999Y-100008D02*
X-155000Y-78009D01*
X-150000Y-78008D02*
X-127999Y-100008D01*
X-178000Y-101009D02*
X-176999Y-100008D01*
X-5000Y12250D02*
Y24491D01*
X8491Y31982D02*
X8509Y32000D01*
X8491Y50982D02*
X8509Y51000D01*
X5000Y-12250D02*
X10000D01*
X12250Y-10000D01*
Y-5000D01*
Y0D01*
Y5000D01*
Y10000D01*
X0Y5250D02*
Y12250D01*
Y5250D02*
X12000D01*
X12250Y5000D01*
X5000Y12250D02*
Y19000D01*
X23000Y2000D02*
X34000Y-9000D01*
X23000Y2000D02*
Y19000D01*
X5000D02*
X23000D01*
X2491Y31982D02*
X8491D01*
X-5000Y24491D02*
X2491Y31982D01*
X-12250Y-10000D02*
X-12250Y-10000D01*
X-26858Y-10000D02*
X-12250D01*
X-31000Y0D02*
X-12250D01*
X-21000Y-5000D02*
X-12250D01*
X-21000Y-5000D02*
X-21000Y-5000D01*
X-28929D02*
X-21000D01*
X-5000Y-45000D02*
Y-12250D01*
X-38929Y-15000D02*
X-28929Y-5000D01*
X-41000Y-10000D02*
X-31000Y0D01*
X-80000Y-15000D02*
X-38929D01*
X-80000Y-10000D02*
X-41000D01*
X-89500Y-20000D02*
X-80000D01*
X-80000Y15000D02*
X-80000Y15000D01*
X-80000D02*
X-80000Y15000D01*
X-80000Y-30000D02*
X-63977D01*
X-58995Y-34982D01*
X-58477Y-35500D01*
X-34518Y-53982D02*
X-34000Y-54500D01*
X-64500Y-87500D02*
X-59000Y-82000D01*
X-83495Y-101482D02*
X-83013Y-101000D01*
X-115000Y-69500D02*
Y-60000D01*
X-120000Y-71571D02*
Y-60000D01*
X67500Y-148500D02*
Y-125500D01*
X84000Y-109000D02*
X92100D01*
X67500Y-125500D02*
X84000Y-109000D01*
X67500Y-106500D02*
Y-99500D01*
X135400Y51500D02*
Y51900D01*
X152500Y69000D01*
X-12250Y10000D02*
Y26750D01*
X-17000Y31500D02*
X-12250Y26750D01*
X-67003Y61999D02*
X-66504Y61500D01*
X-80000Y49003D02*
X-67003Y61999D01*
X-80000Y-25000D02*
X-41858D01*
X-26858Y-10000D01*
X-80000Y-53358D02*
Y-40000D01*
X-32000Y16000D02*
X-21000Y5000D01*
X-17000Y31500D02*
X-15500D01*
X42000Y-265500D02*
X42500Y-265000D01*
X42000Y-287000D02*
Y-265500D01*
X66000Y-288000D02*
X66500Y-287500D01*
Y-265000D01*
X1000Y-240000D02*
X1500Y-240500D01*
X22500D01*
X86500D02*
X111500D01*
X67500Y-238250D02*
Y-219000D01*
X-64018Y-53982D02*
X-58995D01*
X-34000Y-54500D02*
X-23500Y-44000D01*
X-18000D01*
X-46239Y-44761D02*
Y-35500D01*
Y-44761D02*
X-46000Y-45000D01*
X-70000Y-48000D02*
X-64018Y-53982D01*
X-70000Y-48000D02*
Y-35000D01*
X-80000D02*
X-70000D01*
X104000Y-82000D02*
X104500Y-82500D01*
X115000D02*
Y-75000D01*
X104500Y-82500D02*
X115000D01*
X125500D01*
X104800Y-109000D02*
Y-101800D01*
X85500Y-82500D02*
X104800Y-101800D01*
X-120000Y-250000D02*
X-110000D01*
X-120000Y-250000D02*
X-120000Y-250000D01*
X-40000Y-282500D02*
X-30000D01*
X-30000Y-282500D01*
X-195650Y233000D02*
X-195000Y233650D01*
X-205000Y202500D02*
Y235000D01*
X-189000Y251000D01*
X-150000Y86929D02*
X-125000Y111929D01*
Y235000D01*
X-108500Y251500D01*
X-115150Y233500D02*
X-104650Y223000D01*
X-87500D01*
X-195650Y233000D02*
X-185650Y223000D01*
X-23150Y222500D02*
X-6000D01*
X-33650Y233000D02*
X-23150Y222500D01*
X58350Y223000D02*
X75000D01*
X47850Y233500D02*
X58350Y223000D01*
X-288300Y-135629D02*
Y-104300D01*
X-313700Y-137000D02*
X-301700Y-149000D01*
X-313700Y-137000D02*
Y-110000D01*
X-302500D02*
X-262500Y-70000D01*
X-313700Y-110000D02*
X-302500D01*
X-262500Y-70000D02*
Y-30500D01*
X-119500Y-237000D02*
X-110000D01*
X-120000Y-237500D02*
X-119500Y-237000D01*
X-110000Y-256500D02*
X-101000D01*
X-95000Y-262500D01*
X-167500Y20000D02*
X-75000Y-72500D01*
X-42500D01*
X-40000Y-75000D01*
X-165429Y25000D02*
X-72929Y-67500D01*
X-40429D01*
X-31750Y-76179D01*
X-80000Y-53358D02*
X-70858Y-62500D01*
X-22500D01*
X-5000Y-45000D01*
X-83495Y-82482D02*
X-80018D01*
X-75000Y-87500D01*
X-69750D02*
Y-80250D01*
X-75000Y-87500D02*
X-69750D01*
X-64500D01*
X-70000Y-80000D02*
X-69750Y-80250D01*
X-197000Y103500D02*
X-191500D01*
X-187500Y107500D01*
X-182500D02*
X-178501Y103501D01*
X-173497D01*
X-185000Y97500D02*
Y107500D01*
X-185000Y97500D02*
X-185000Y97500D01*
X-187500Y107500D02*
X-185000D01*
X-182500D01*
X-15500Y31500D02*
X-9500Y37500D01*
X-5000D01*
X-173498Y84500D02*
X-173497Y84501D01*
X-207500Y79050D02*
X-183450Y55000D01*
X-175000D01*
X-185249Y79751D02*
Y84500D01*
X-190000Y75000D02*
X-185249Y79751D01*
X-197000Y84500D02*
X-185249D01*
X-173498D01*
X65000Y-62000D02*
Y25000D01*
Y-62000D02*
X85000Y-82000D01*
X85500Y-82500D01*
X67500Y-99500D02*
X85000Y-82000D01*
X241500Y197000D02*
X304200D01*
X312500Y188700D01*
X241500Y162000D02*
X311200D01*
X312500Y163300D01*
X241500Y127000D02*
X301600D01*
X-120000Y55000D02*
Y73929D01*
X-51929Y142000D01*
X-125000Y55000D02*
Y76000D01*
X-54000Y147000D01*
X-130000Y55000D02*
Y78645D01*
X-56645Y152000D01*
X-135000Y55000D02*
Y80716D01*
X-58716Y157000D01*
X-140000Y55000D02*
Y82787D01*
X-145000Y55000D02*
Y84858D01*
X-205000Y202500D02*
X-155000Y152500D01*
Y55000D02*
Y152500D01*
X241500Y92000D02*
X292000D01*
X312500Y112500D01*
X-140000Y82787D02*
X-60787Y162000D01*
X-145000Y84858D02*
X-65000Y164858D01*
Y213000D01*
X-27000Y251000D01*
X-185650Y223000D02*
X-167500D01*
X155000Y66500D02*
Y69000D01*
Y88000D01*
D29*
X152500Y22500D02*
X157500Y17500D01*
X142500Y22500D02*
X152500D01*
X122700Y42300D02*
X142500Y22500D01*
X122700Y42300D02*
Y51500D01*
X142500Y22500D02*
X160000Y40000D01*
Y50000D01*
X-95000Y299000D02*
X-94500Y299500D01*
X-167500Y242000D02*
Y291500D01*
X-175500Y299500D02*
X-167500Y291500D01*
X-94500Y299500D02*
X-87500Y292500D01*
Y242000D02*
Y292500D01*
X-6000Y241500D02*
Y292000D01*
X-13500Y299500D02*
X-6000Y292000D01*
X75000Y242000D02*
Y292100D01*
X67600Y299500D02*
X75000Y292100D01*
D30*
X-282500Y130000D02*
X-267500D01*
X81500Y48400D02*
X84600Y51500D01*
X167000Y-42000D02*
Y-35000D01*
Y-42000D02*
X285000Y-160000D01*
X142900Y-109000D02*
X144500Y-107400D01*
X130200Y-109000D02*
X142900D01*
X84600Y51500D02*
X97300D01*
X144500Y-107400D02*
Y-82500D01*
X81500Y22500D02*
Y48400D01*
X-267500Y130000D02*
X-242500Y155000D01*
X285000Y-160000D02*
X297500D01*
X330000Y-127500D01*
Y-117500D01*
X83000Y-35000D02*
X105500Y-57500D01*
X145000D01*
Y-82000D02*
Y-57500D01*
X144500Y-82500D02*
X145000Y-82000D01*
X81500Y-35000D02*
Y22500D01*
D31*
X83000Y-35000D02*
D03*
D32*
X167000D02*
D03*
D33*
X21500Y-265000D02*
D03*
X87500D02*
D03*
D34*
X312500Y112500D02*
D03*
Y137900D02*
D03*
Y163300D02*
D03*
Y188700D02*
D03*
X-222000Y-292400D02*
D03*
Y-267000D02*
D03*
Y-241600D02*
D03*
X-300000Y-73300D02*
D03*
Y-47900D02*
D03*
Y-22500D02*
D03*
Y2900D02*
D03*
Y28300D02*
D03*
D35*
X-69100Y299500D02*
D03*
X-94500D02*
D03*
X93000Y299500D02*
D03*
X67600D02*
D03*
X-150100D02*
D03*
X-175500D02*
D03*
X11900D02*
D03*
X-13500D02*
D03*
X227400Y300000D02*
D03*
X202000D02*
D03*
X176600D02*
D03*
X151200D02*
D03*
D36*
X-119900Y299500D02*
D03*
X42200Y299500D02*
D03*
X-200900D02*
D03*
X-38900D02*
D03*
D37*
X-301700Y-123600D02*
D03*
X-276300D02*
D03*
D38*
X-301700Y-149000D02*
D03*
X-276300D02*
D03*
Y-174400D02*
D03*
X-301700D02*
D03*
D39*
X-265000Y-277500D02*
D03*
X-247500Y237500D02*
D03*
X-153000Y-157000D02*
D03*
X-233000Y-135000D02*
D03*
X-245000Y-217000D02*
D03*
X-285000Y-216000D02*
D03*
X-239000Y-163000D02*
D03*
X-232000Y-86000D02*
D03*
X215000Y205000D02*
D03*
Y170000D02*
D03*
Y102500D02*
D03*
Y137500D02*
D03*
X157500Y17500D02*
D03*
X112500Y30000D02*
D03*
X-97500Y-280000D02*
D03*
Y-290000D02*
D03*
X-120000Y-250000D02*
D03*
X285000Y5000D02*
D03*
X-227500Y-42500D02*
D03*
Y-25000D02*
D03*
X-217500Y-87500D02*
D03*
X-72500Y-112500D02*
D03*
X12500Y-25000D02*
D03*
X20000Y65000D02*
D03*
Y40000D02*
D03*
X-55000Y52500D02*
D03*
Y92500D02*
D03*
X-40000Y7500D02*
D03*
X-7500Y65000D02*
D03*
X50000Y10000D02*
D03*
X50000Y-167500D02*
D03*
X175000Y110000D02*
D03*
X110000Y132500D02*
D03*
X-147500Y-15000D02*
D03*
X-92500Y15000D02*
D03*
X-200000Y-257500D02*
D03*
Y-295000D02*
D03*
X-52500Y-262500D02*
D03*
X-40000Y-190000D02*
D03*
X-25000Y-190000D02*
D03*
X-162000Y69000D02*
D03*
X-225000Y25000D02*
D03*
X42000Y-287000D02*
D03*
X66000Y-288000D02*
D03*
X1000Y-240000D02*
D03*
X111500Y-240500D02*
D03*
X67500Y-219000D02*
D03*
X-18000Y-44000D02*
D03*
X-46000Y-45000D02*
D03*
X115000Y-75000D02*
D03*
X-30000Y-282500D02*
D03*
X-120000Y-237500D02*
D03*
X-95000Y-262500D02*
D03*
X-242500Y155000D02*
D03*
X-70000Y-80000D02*
D03*
X-185000Y97500D02*
D03*
X-5000Y37500D02*
D03*
X330000Y-117500D02*
D03*
X-190000Y75000D02*
D03*
X65000Y25000D02*
D03*
X117500Y-190000D02*
D03*
M02*
