G04 Layer_Color=65535*
%FSLAX44Y44*%
%MOMM*%
G71*
G01*
G75*
%ADD40C,0.2000*%
%ADD41C,0.1270*%
%ADD42C,0.2540*%
D40*
X83500Y-159000D02*
X96500D01*
X138500D02*
X151500D01*
X149500Y-121000D02*
X151500D01*
X83500D02*
X85500D01*
X151500Y-159000D02*
Y-121000D01*
X83500Y-159000D02*
Y-121000D01*
X131000Y101500D02*
X144000D01*
X76000D02*
X89000D01*
X76000Y63500D02*
X78000D01*
X142000D02*
X144000D01*
X76000D02*
Y101500D01*
X144000Y63500D02*
Y101500D01*
X-169000Y-250000D02*
Y-230000D01*
Y-250000D02*
X-127000D01*
Y-230000D01*
X-169000D02*
X-127000D01*
X-169000Y-289000D02*
Y-269000D01*
Y-289000D02*
X-127000D01*
Y-269000D01*
X-169000D02*
X-127000D01*
X19250Y-19250D02*
Y19250D01*
X-19250Y-19250D02*
X19250D01*
X-19250D02*
Y19250D01*
X19250D01*
X-187660Y-160280D02*
Y-124720D01*
Y-160280D02*
X-167340D01*
Y-124720D01*
X-187660D02*
X-167340D01*
X-137660Y-160280D02*
Y-124720D01*
Y-160280D02*
X-117340D01*
Y-124720D01*
X-137660D02*
X-117340D01*
X-238840Y-305280D02*
Y-269720D01*
X-259160D02*
X-238840D01*
X-259160Y-305280D02*
Y-269720D01*
Y-305280D02*
X-238840D01*
X-6840Y23220D02*
Y58780D01*
X-27160D02*
X-6840D01*
X-27160Y23220D02*
Y58780D01*
Y23220D02*
X-6840D01*
X44160Y-17280D02*
Y18280D01*
X23840D02*
X44160D01*
X23840Y-17280D02*
Y18280D01*
Y-17280D02*
X44160D01*
X18651Y23702D02*
Y59262D01*
X-1669D02*
X18651D01*
X-1669Y23702D02*
Y59262D01*
Y23702D02*
X18651D01*
X44160Y23720D02*
Y59280D01*
X23840D02*
X44160D01*
X23840Y23720D02*
Y59280D01*
Y23720D02*
X44160D01*
X73220Y12340D02*
X108780D01*
Y32660D01*
X73220D02*
X108780D01*
X73220Y12340D02*
Y32660D01*
X77220Y-92660D02*
X112780D01*
Y-72340D01*
X77220D02*
X112780D01*
X77220Y-92660D02*
Y-72340D01*
X-44160Y-62780D02*
Y-27220D01*
Y-62780D02*
X-23840D01*
Y-27220D01*
X-44160D02*
X-23840D01*
X-69155Y-62262D02*
Y-26702D01*
Y-62262D02*
X-48835D01*
Y-26702D01*
X-69155D02*
X-48835D01*
X-69160Y-109280D02*
Y-73720D01*
Y-109280D02*
X-48840D01*
Y-73720D01*
X-69160D02*
X-48840D01*
X-93655Y-109762D02*
Y-74202D01*
Y-109762D02*
X-73335D01*
Y-74202D01*
X-93655D02*
X-73335D01*
X-230345Y-59281D02*
Y-23721D01*
X-250665D02*
X-230345D01*
X-250665Y-59281D02*
Y-23721D01*
Y-59281D02*
X-230345D01*
X-204840Y-59780D02*
Y-24220D01*
X-225160D02*
X-204840D01*
X-225160Y-59780D02*
Y-24220D01*
Y-59780D02*
X-204840D01*
X-183657Y76221D02*
Y111781D01*
Y76221D02*
X-163337D01*
Y111781D01*
X-183657D02*
X-163337D01*
X-207160Y76220D02*
Y111780D01*
Y76220D02*
X-186840D01*
Y111780D01*
X-207160D02*
X-186840D01*
X-56843Y53719D02*
Y89279D01*
X-77163D02*
X-56843D01*
X-77163Y53719D02*
Y89279D01*
Y53719D02*
X-56843D01*
X-31840Y53220D02*
Y88780D01*
X-52160D02*
X-31840D01*
X-52160Y53220D02*
Y88780D01*
Y53220D02*
X-31840D01*
X117220Y-72340D02*
X152780D01*
X117220Y-92660D02*
Y-72340D01*
Y-92660D02*
X152780D01*
Y-72340D01*
X115220Y32660D02*
X150780D01*
X115220Y12340D02*
Y32660D01*
Y12340D02*
X150780D01*
Y32660D01*
X-66160Y220D02*
Y35780D01*
Y220D02*
X-45840D01*
Y35780D01*
X-66160D02*
X-45840D01*
X-246780Y-63840D02*
X-211220D01*
X-246780Y-84160D02*
Y-63840D01*
Y-84160D02*
X-211220D01*
Y-63840D01*
X98000Y-45000D02*
Y-25000D01*
X152000Y-45000D02*
Y-25000D01*
X125000D02*
X152000D01*
X98000D02*
X125000D01*
Y-45000D02*
X152000D01*
X98000D02*
X125000D01*
X-16160Y214220D02*
Y249780D01*
Y214220D02*
X4160D01*
Y249780D01*
X-16160D02*
X4160D01*
X-178160Y214220D02*
Y249780D01*
Y214220D02*
X-157840D01*
Y249780D01*
X-178160D02*
X-157840D01*
X-97660Y214720D02*
Y250280D01*
Y214720D02*
X-77340D01*
Y250280D01*
X-97660D02*
X-77340D01*
X64840Y214720D02*
Y250280D01*
Y214720D02*
X85160D01*
Y250280D01*
X64840D02*
X85160D01*
X-312280Y-190840D02*
X-276720D01*
X-312280Y-211160D02*
Y-190840D01*
Y-211160D02*
X-276720D01*
Y-190840D01*
X-272780D02*
X-237220D01*
X-272780Y-211160D02*
Y-190840D01*
Y-211160D02*
X-237220D01*
Y-190840D01*
X77660Y-133780D02*
Y-98220D01*
X57340D02*
X77660D01*
X57340Y-133780D02*
Y-98220D01*
Y-133780D02*
X77660D01*
Y-175780D02*
Y-140220D01*
X57340D02*
X77660D01*
X57340Y-175780D02*
Y-140220D01*
Y-175780D02*
X77660D01*
X149840Y41720D02*
Y77280D01*
Y41720D02*
X170160D01*
Y77280D01*
X149840D02*
X170160D01*
X149840Y82220D02*
Y117780D01*
Y82220D02*
X170160D01*
Y117780D01*
X149840D02*
X170160D01*
X-260780Y-166840D02*
X-225220D01*
X-260780Y-187160D02*
Y-166840D01*
Y-187160D02*
X-225220D01*
Y-166840D01*
X-193160Y-304280D02*
Y-268720D01*
Y-304280D02*
X-172840D01*
Y-268720D01*
X-193160D02*
X-172840D01*
X-193160Y-265280D02*
Y-229720D01*
Y-265280D02*
X-172840D01*
Y-229720D01*
X-193160D02*
X-172840D01*
X-260780Y-131160D02*
X-225220D01*
Y-110840D01*
X-260780D02*
X-225220D01*
X-260780Y-131160D02*
Y-110840D01*
X-102500Y235000D02*
Y250250D01*
X-127537Y235037D02*
Y250250D01*
Y235037D02*
X-127500Y235000D01*
X-109850D02*
X-102500D01*
X-127500D02*
X-120250D01*
X60500Y235000D02*
Y250250D01*
X35463Y235037D02*
Y250250D01*
Y235037D02*
X35500Y235000D01*
X53150D02*
X60500D01*
X35500D02*
X42750D01*
X-183000Y234500D02*
Y249750D01*
X-208037Y234537D02*
Y249750D01*
Y234537D02*
X-208000Y234500D01*
X-190350D02*
X-183000D01*
X-208000D02*
X-200750D01*
X-21000D02*
Y249750D01*
X-46037Y234537D02*
Y249750D01*
Y234537D02*
X-46000Y234500D01*
X-28350D02*
X-21000D01*
X-46000D02*
X-38750D01*
X225000Y86000D02*
X240250D01*
X225037Y111037D02*
X240250D01*
X225000Y111000D02*
X225037Y111037D01*
X225000Y86000D02*
Y93350D01*
Y103750D02*
Y111000D01*
Y191000D02*
X240250D01*
X225037Y216037D02*
X240250D01*
X225000Y216000D02*
X225037Y216037D01*
X225000Y191000D02*
Y198350D01*
Y208750D02*
Y216000D01*
Y121000D02*
X240250D01*
X225037Y146037D02*
X240250D01*
X225000Y146000D02*
X225037Y146037D01*
X225000Y121000D02*
Y128350D01*
Y138750D02*
Y146000D01*
Y156000D02*
X240250D01*
X225037Y181037D02*
X240250D01*
X225000Y181000D02*
X225037Y181037D01*
X225000Y156000D02*
Y163350D01*
Y173750D02*
Y181000D01*
X-103000Y-313000D02*
Y-207000D01*
X-47000D01*
X-103000Y-313000D02*
X-47000D01*
Y-207000D01*
X14500Y-279625D02*
X94500D01*
X14500Y-286625D02*
X94500D01*
X72500Y-235625D02*
X74500D01*
X34500D02*
X36500D01*
X94500Y-292625D02*
Y-276625D01*
X14500Y-292625D02*
X94500D01*
X14500D02*
Y-276625D01*
X94500Y-252625D02*
Y-250625D01*
X15500Y-252625D02*
Y-250625D01*
X19500Y-301625D02*
Y-296625D01*
X89500Y-301625D02*
Y-296625D01*
X-500Y-301625D02*
X109500D01*
Y-313625D02*
Y-301625D01*
X-500Y-313625D02*
Y-301625D01*
X54500Y-313625D02*
Y-301625D01*
X50500Y-305625D02*
X54500Y-301625D01*
X58500Y-305625D01*
X-252500Y100000D02*
Y260000D01*
X-312500D02*
X-252500D01*
X-312500Y100000D02*
Y260000D01*
Y100000D02*
X-252500D01*
X325000Y-200000D02*
Y0D01*
X245000D02*
X325000D01*
X245000Y-200000D02*
Y0D01*
Y-200000D02*
X325000D01*
X299800Y99800D02*
X325200D01*
X299800D02*
Y201500D01*
X325200D01*
Y99800D02*
Y201500D01*
X-189500Y49500D02*
X-185000D01*
X-189500Y45000D02*
Y49500D01*
X-85500Y45000D02*
Y49500D01*
X-90000D02*
X-85500D01*
X-90000Y-54500D02*
X-85500D01*
Y-50000D01*
X-189500Y-54500D02*
X-185000D01*
X-189500D02*
Y-50000D01*
X-132600Y286800D02*
X-56900D01*
Y312200D01*
X-132600D02*
X-56900D01*
X-132600Y286800D02*
Y312200D01*
X29500Y286800D02*
X105200D01*
Y312200D01*
X29500D02*
X105200D01*
X29500Y286800D02*
Y312200D01*
X-213600Y286800D02*
X-137900D01*
Y312200D01*
X-213600D02*
X-137900D01*
X-213600Y286800D02*
Y312200D01*
X-51600Y286800D02*
X24100D01*
Y312200D01*
X-51600D02*
X24100D01*
X-51600Y286800D02*
Y312200D01*
X-195499Y-119008D02*
X-109499D01*
X-195499D02*
Y-81008D01*
X-109499D01*
Y-119008D02*
Y-81008D01*
X-265000Y-187000D02*
Y-111000D01*
X-313000D02*
X-265000D01*
X-313000Y-187000D02*
Y-111000D01*
Y-187000D02*
X-265000D01*
X-234700Y-305100D02*
X-209300D01*
X-234700D02*
Y-229400D01*
X-209300D01*
Y-305100D02*
Y-229400D01*
X138500Y287300D02*
X240200D01*
Y312700D01*
X138500D02*
X240200D01*
X138500Y287300D02*
Y312700D01*
X-312700Y-86700D02*
Y41000D01*
Y-86700D02*
X-287300D01*
Y41000D01*
X-312700D02*
X-287300D01*
D41*
X-224922Y-217383D02*
X-227461D01*
X-226191D01*
Y-223730D01*
X-227461Y-225000D01*
X-228730D01*
X-230000Y-223730D01*
X-222383Y-225000D02*
Y-217383D01*
X-218574D01*
X-217304Y-218652D01*
Y-221191D01*
X-218574Y-222461D01*
X-222383D01*
X-214765Y-218652D02*
X-213495Y-217383D01*
X-210956D01*
X-209687Y-218652D01*
Y-219922D01*
X-210956Y-221191D01*
X-212226D01*
X-210956D01*
X-209687Y-222461D01*
Y-223730D01*
X-210956Y-225000D01*
X-213495D01*
X-214765Y-223730D01*
X-308922Y-98883D02*
X-311461D01*
X-310191D01*
Y-105230D01*
X-311461Y-106500D01*
X-312730D01*
X-314000Y-105230D01*
X-306383Y-106500D02*
Y-98883D01*
X-302574D01*
X-301304Y-100152D01*
Y-102691D01*
X-302574Y-103961D01*
X-306383D01*
X-293687Y-106500D02*
X-298765D01*
X-293687Y-101422D01*
Y-100152D01*
X-294956Y-98883D01*
X-297495D01*
X-298765Y-100152D01*
X-168000Y-257383D02*
Y-265000D01*
X-162922D01*
X-155304Y-257383D02*
X-160382D01*
Y-265000D01*
X-155304D01*
X-160382Y-261191D02*
X-157843D01*
X-152765Y-257383D02*
Y-265000D01*
X-148956D01*
X-147687Y-263730D01*
Y-258652D01*
X-148956Y-257383D01*
X-152765D01*
X-145147Y-265000D02*
X-142608D01*
X-143878D01*
Y-257383D01*
X-145147Y-258652D01*
X-209000Y60617D02*
Y54270D01*
X-207730Y53000D01*
X-205191D01*
X-203922Y54270D01*
Y60617D01*
X-201383Y59348D02*
X-200113Y60617D01*
X-197574D01*
X-196304Y59348D01*
Y58078D01*
X-197574Y56809D01*
X-198843D01*
X-197574D01*
X-196304Y55539D01*
Y54270D01*
X-197574Y53000D01*
X-200113D01*
X-201383Y54270D01*
X-261000Y-107000D02*
Y-99382D01*
X-257191D01*
X-255922Y-100652D01*
Y-103191D01*
X-257191Y-104461D01*
X-261000D01*
X-258461D02*
X-255922Y-107000D01*
X-253382Y-100652D02*
X-252113Y-99382D01*
X-249574D01*
X-248304Y-100652D01*
Y-101922D01*
X-249574Y-103191D01*
X-248304Y-104461D01*
Y-105730D01*
X-249574Y-107000D01*
X-252113D01*
X-253382Y-105730D01*
Y-104461D01*
X-252113Y-103191D01*
X-253382Y-101922D01*
Y-100652D01*
X-252113Y-103191D02*
X-249574D01*
X-195000Y-69882D02*
Y-71152D01*
X-192461Y-73691D01*
X-189922Y-71152D01*
Y-69882D01*
X-192461Y-73691D02*
Y-77500D01*
X-187383D02*
X-184843D01*
X-186113D01*
Y-69882D01*
X-187383Y-71152D01*
X-102500Y-194883D02*
Y-201230D01*
X-101230Y-202500D01*
X-98691D01*
X-97422Y-201230D01*
Y-194883D01*
X-89804D02*
X-94882D01*
Y-198691D01*
X-92343Y-197422D01*
X-91074D01*
X-89804Y-198691D01*
Y-201230D01*
X-91074Y-202500D01*
X-93613D01*
X-94882Y-201230D01*
X67500Y117618D02*
Y111270D01*
X68770Y110000D01*
X71309D01*
X72578Y111270D01*
Y117618D01*
X78926Y110000D02*
Y117618D01*
X75118Y113809D01*
X80196D01*
X145000Y-169883D02*
Y-176230D01*
X146270Y-177500D01*
X148809D01*
X150078Y-176230D01*
Y-169883D01*
X157696Y-177500D02*
X152618D01*
X157696Y-172422D01*
Y-171152D01*
X156426Y-169883D01*
X153887D01*
X152618Y-171152D01*
X7500Y-22383D02*
Y-28730D01*
X8770Y-30000D01*
X11309D01*
X12578Y-28730D01*
Y-22383D01*
X15117Y-30000D02*
X17657D01*
X16387D01*
Y-22383D01*
X15117Y-23652D01*
X-193000Y-226500D02*
Y-218883D01*
X-189191D01*
X-187922Y-220152D01*
Y-222691D01*
X-189191Y-223961D01*
X-193000D01*
X-190461D02*
X-187922Y-226500D01*
X-185382D02*
X-182843D01*
X-184113D01*
Y-218883D01*
X-185382Y-220152D01*
X-179035D02*
X-177765Y-218883D01*
X-175226D01*
X-173956Y-220152D01*
Y-225230D01*
X-175226Y-226500D01*
X-177765D01*
X-179035Y-225230D01*
Y-220152D01*
X-193000Y-316500D02*
Y-308883D01*
X-189191D01*
X-187922Y-310152D01*
Y-312691D01*
X-189191Y-313961D01*
X-193000D01*
X-190461D02*
X-187922Y-316500D01*
X-185382Y-315230D02*
X-184113Y-316500D01*
X-181574D01*
X-180304Y-315230D01*
Y-310152D01*
X-181574Y-308883D01*
X-184113D01*
X-185382Y-310152D01*
Y-311422D01*
X-184113Y-312691D01*
X-180304D01*
X-222000Y-174000D02*
Y-166383D01*
X-218191D01*
X-216922Y-167652D01*
Y-170191D01*
X-218191Y-171461D01*
X-222000D01*
X-219461D02*
X-216922Y-174000D01*
X-214382Y-166383D02*
X-209304D01*
Y-167652D01*
X-214382Y-172730D01*
Y-174000D01*
X150000Y122500D02*
Y130118D01*
X153809D01*
X155078Y128848D01*
Y126309D01*
X153809Y125039D01*
X150000D01*
X152539D02*
X155078Y122500D01*
X162696Y130118D02*
X160157Y128848D01*
X157618Y126309D01*
Y123770D01*
X158887Y122500D01*
X161426D01*
X162696Y123770D01*
Y125039D01*
X161426Y126309D01*
X157618D01*
X157500Y30000D02*
Y37617D01*
X161309D01*
X162578Y36348D01*
Y33809D01*
X161309Y32539D01*
X157500D01*
X160039D02*
X162578Y30000D01*
X170196Y37617D02*
X165117D01*
Y33809D01*
X167657Y35078D01*
X168926D01*
X170196Y33809D01*
Y31270D01*
X168926Y30000D01*
X166387D01*
X165117Y31270D01*
X57500Y-187500D02*
Y-179883D01*
X61309D01*
X62578Y-181152D01*
Y-183691D01*
X61309Y-184961D01*
X57500D01*
X60039D02*
X62578Y-187500D01*
X68926D02*
Y-179883D01*
X65118Y-183691D01*
X70196D01*
X57500Y-95000D02*
Y-87382D01*
X61309D01*
X62578Y-88652D01*
Y-91191D01*
X61309Y-92461D01*
X57500D01*
X60039D02*
X62578Y-95000D01*
X65118Y-88652D02*
X66387Y-87382D01*
X68926D01*
X70196Y-88652D01*
Y-89922D01*
X68926Y-91191D01*
X67657D01*
X68926D01*
X70196Y-92461D01*
Y-93730D01*
X68926Y-95000D01*
X66387D01*
X65118Y-93730D01*
X-273000Y-222000D02*
Y-214382D01*
X-269191D01*
X-267922Y-215652D01*
Y-218191D01*
X-269191Y-219461D01*
X-273000D01*
X-270461D02*
X-267922Y-222000D01*
X-260304D02*
X-265382D01*
X-260304Y-216922D01*
Y-215652D01*
X-261574Y-214382D01*
X-264113D01*
X-265382Y-215652D01*
X-312500Y-222000D02*
Y-214382D01*
X-308691D01*
X-307422Y-215652D01*
Y-218191D01*
X-308691Y-219461D01*
X-312500D01*
X-309961D02*
X-307422Y-222000D01*
X-304882D02*
X-302343D01*
X-303613D01*
Y-214382D01*
X-304882Y-215652D01*
X212578Y180270D02*
Y185348D01*
X211309Y186618D01*
X208770D01*
X207500Y185348D01*
Y180270D01*
X208770Y179000D01*
X211309D01*
X210039Y181539D02*
X212578Y179000D01*
X211309D02*
X212578Y180270D01*
X215117Y185348D02*
X216387Y186618D01*
X218926D01*
X220196Y185348D01*
Y184078D01*
X218926Y182809D01*
X220196Y181539D01*
Y180270D01*
X218926Y179000D01*
X216387D01*
X215117Y180270D01*
Y181539D01*
X216387Y182809D01*
X215117Y184078D01*
Y185348D01*
X216387Y182809D02*
X218926D01*
X212578Y145269D02*
Y150348D01*
X211309Y151617D01*
X208770D01*
X207500Y150348D01*
Y145269D01*
X208770Y144000D01*
X211309D01*
X210039Y146539D02*
X212578Y144000D01*
X211309D02*
X212578Y145269D01*
X215117Y151617D02*
X220196D01*
Y150348D01*
X215117Y145269D01*
Y144000D01*
X212578Y215270D02*
Y220348D01*
X211309Y221618D01*
X208770D01*
X207500Y220348D01*
Y215270D01*
X208770Y214000D01*
X211309D01*
X210039Y216539D02*
X212578Y214000D01*
X211309D02*
X212578Y215270D01*
X220196Y221618D02*
X217657Y220348D01*
X215117Y217809D01*
Y215270D01*
X216387Y214000D01*
X218926D01*
X220196Y215270D01*
Y216539D01*
X218926Y217809D01*
X215117D01*
X212578Y110269D02*
Y115348D01*
X211309Y116617D01*
X208770D01*
X207500Y115348D01*
Y110269D01*
X208770Y109000D01*
X211309D01*
X210039Y111539D02*
X212578Y109000D01*
X211309D02*
X212578Y110269D01*
X220196Y116617D02*
X215117D01*
Y112809D01*
X217657Y114078D01*
X218926D01*
X220196Y112809D01*
Y110269D01*
X218926Y109000D01*
X216387D01*
X215117Y110269D01*
X-50270Y239578D02*
X-55348D01*
X-56617Y238309D01*
Y235770D01*
X-55348Y234500D01*
X-50270D01*
X-49000Y235770D01*
Y238309D01*
X-51539Y237039D02*
X-49000Y239578D01*
Y238309D02*
X-50270Y239578D01*
X-49000Y245926D02*
X-56617D01*
X-52809Y242118D01*
Y247196D01*
X-212270Y239578D02*
X-217348D01*
X-218617Y238309D01*
Y235770D01*
X-217348Y234500D01*
X-212270D01*
X-211000Y235770D01*
Y238309D01*
X-213539Y237039D02*
X-211000Y239578D01*
Y238309D02*
X-212270Y239578D01*
X-217348Y242118D02*
X-218617Y243387D01*
Y245926D01*
X-217348Y247196D01*
X-216078D01*
X-214809Y245926D01*
Y244657D01*
Y245926D01*
X-213539Y247196D01*
X-212270D01*
X-211000Y245926D01*
Y243387D01*
X-212270Y242118D01*
X30730Y239578D02*
X25652D01*
X24383Y238309D01*
Y235770D01*
X25652Y234500D01*
X30730D01*
X32000Y235770D01*
Y238309D01*
X29461Y237039D02*
X32000Y239578D01*
Y238309D02*
X30730Y239578D01*
X32000Y242118D02*
Y244657D01*
Y243387D01*
X24383D01*
X25652Y242118D01*
X245000Y12617D02*
Y5000D01*
X250078D01*
X252617Y12617D02*
X255157D01*
X253887D01*
Y5000D01*
X252617D01*
X255157D01*
X258965D02*
Y12617D01*
X262774D01*
X264044Y11348D01*
Y8809D01*
X262774Y7539D01*
X258965D01*
X270392Y12617D02*
X267853D01*
X266583Y11348D01*
Y6270D01*
X267853Y5000D01*
X270392D01*
X271661Y6270D01*
Y11348D01*
X270392Y12617D01*
X-169000Y-218382D02*
Y-226000D01*
X-163922D01*
X-156304Y-218382D02*
X-161383D01*
Y-226000D01*
X-156304D01*
X-161383Y-222191D02*
X-158843D01*
X-153765Y-218382D02*
Y-226000D01*
X-149956D01*
X-148687Y-224730D01*
Y-219652D01*
X-149956Y-218382D01*
X-153765D01*
X-141069Y-226000D02*
X-146147D01*
X-141069Y-220922D01*
Y-219652D01*
X-142339Y-218382D01*
X-144878D01*
X-146147Y-219652D01*
X-307422Y272617D02*
X-309961D01*
X-308691D01*
Y266270D01*
X-309961Y265000D01*
X-311230D01*
X-312500Y266270D01*
X-304883Y272617D02*
X-299804D01*
X-302343D01*
Y265000D01*
X-292187Y271348D02*
X-293456Y272617D01*
X-295995D01*
X-297265Y271348D01*
Y270078D01*
X-295995Y268809D01*
X-293456D01*
X-292187Y267539D01*
Y266270D01*
X-293456Y265000D01*
X-295995D01*
X-297265Y266270D01*
X143678Y324618D02*
X141139D01*
X142409D01*
Y318270D01*
X141139Y317000D01*
X139870D01*
X138600Y318270D01*
X146217Y317000D02*
Y324618D01*
X150026D01*
X151296Y323348D01*
Y320809D01*
X150026Y319539D01*
X146217D01*
X153835Y317000D02*
X156374D01*
X155105D01*
Y324618D01*
X153835Y323348D01*
X160183Y317000D02*
X162722D01*
X161453D01*
Y324618D01*
X160183Y323348D01*
X-307422Y52217D02*
X-309961D01*
X-308691D01*
Y45870D01*
X-309961Y44600D01*
X-311230D01*
X-312500Y45870D01*
X-304883Y44600D02*
Y52217D01*
X-301074D01*
X-299804Y50948D01*
Y48409D01*
X-301074Y47139D01*
X-304883D01*
X-297265Y45870D02*
X-295995Y44600D01*
X-293456D01*
X-292187Y45870D01*
Y50948D01*
X-293456Y52217D01*
X-295995D01*
X-297265Y50948D01*
Y49678D01*
X-295995Y48409D01*
X-292187D01*
X305078Y214118D02*
X302539D01*
X303809D01*
Y207770D01*
X302539Y206500D01*
X301270D01*
X300000Y207770D01*
X307617Y206500D02*
Y214118D01*
X311426D01*
X312696Y212848D01*
Y210309D01*
X311426Y209039D01*
X307617D01*
X315235Y212848D02*
X316505Y214118D01*
X319044D01*
X320313Y212848D01*
Y211578D01*
X319044Y210309D01*
X320313Y209039D01*
Y207770D01*
X319044Y206500D01*
X316505D01*
X315235Y207770D01*
Y209039D01*
X316505Y210309D01*
X315235Y211578D01*
Y212848D01*
X316505Y210309D02*
X319044D01*
X-45522Y324618D02*
X-48061D01*
X-46791D01*
Y318270D01*
X-48061Y317000D01*
X-49330D01*
X-50600Y318270D01*
X-42983Y317000D02*
Y324618D01*
X-39174D01*
X-37904Y323348D01*
Y320809D01*
X-39174Y319539D01*
X-42983D01*
X-35365Y324618D02*
X-30287D01*
Y323348D01*
X-35365Y318270D01*
Y317000D01*
X-207522Y324618D02*
X-210061D01*
X-208791D01*
Y318270D01*
X-210061Y317000D01*
X-211330D01*
X-212600Y318270D01*
X-204982Y317000D02*
Y324618D01*
X-201174D01*
X-199904Y323348D01*
Y320809D01*
X-201174Y319539D01*
X-204982D01*
X-192287Y324618D02*
X-194826Y323348D01*
X-197365Y320809D01*
Y318270D01*
X-196095Y317000D01*
X-193556D01*
X-192287Y318270D01*
Y319539D01*
X-193556Y320809D01*
X-197365D01*
X35578Y324618D02*
X33039D01*
X34309D01*
Y318270D01*
X33039Y317000D01*
X31770D01*
X30500Y318270D01*
X38117Y317000D02*
Y324618D01*
X41926D01*
X43196Y323348D01*
Y320809D01*
X41926Y319539D01*
X38117D01*
X49544Y317000D02*
Y324618D01*
X45735Y320809D01*
X50813D01*
X5078Y-289883D02*
X2539D01*
X3809D01*
Y-296230D01*
X2539Y-297500D01*
X1270D01*
X0Y-296230D01*
X7617Y-297500D02*
X10157D01*
X8887D01*
Y-289883D01*
X7617Y-291152D01*
X97500Y-12383D02*
Y-20000D01*
X101309D01*
X102578Y-18730D01*
Y-13652D01*
X101309Y-12383D01*
X97500D01*
X105118Y-20000D02*
X107657D01*
X106387D01*
Y-12383D01*
X105118Y-13652D01*
X-240922Y-88652D02*
X-242191Y-87382D01*
X-244730D01*
X-246000Y-88652D01*
Y-93730D01*
X-244730Y-95000D01*
X-242191D01*
X-240922Y-93730D01*
X-233304Y-95000D02*
X-238382D01*
X-233304Y-89922D01*
Y-88652D01*
X-234574Y-87382D01*
X-237113D01*
X-238382Y-88652D01*
X-230765D02*
X-229495Y-87382D01*
X-226956D01*
X-225687Y-88652D01*
Y-89922D01*
X-226956Y-91191D01*
X-228226D01*
X-226956D01*
X-225687Y-92461D01*
Y-93730D01*
X-226956Y-95000D01*
X-229495D01*
X-230765Y-93730D01*
X-60922Y45348D02*
X-62191Y46617D01*
X-64730D01*
X-66000Y45348D01*
Y40270D01*
X-64730Y39000D01*
X-62191D01*
X-60922Y40270D01*
X-53304Y39000D02*
X-58382D01*
X-53304Y44078D01*
Y45348D01*
X-54574Y46617D01*
X-57113D01*
X-58382Y45348D01*
X-45686Y39000D02*
X-50765D01*
X-45686Y44078D01*
Y45348D01*
X-46956Y46617D01*
X-49495D01*
X-50765Y45348D01*
X120078Y6348D02*
X118809Y7617D01*
X116270D01*
X115000Y6348D01*
Y1270D01*
X116270Y0D01*
X118809D01*
X120078Y1270D01*
X127696Y0D02*
X122618D01*
X127696Y5078D01*
Y6348D01*
X126426Y7617D01*
X123887D01*
X122618Y6348D01*
X130235Y0D02*
X132774D01*
X131505D01*
Y7617D01*
X130235Y6348D01*
X122578Y-61152D02*
X121309Y-59882D01*
X118770D01*
X117500Y-61152D01*
Y-66230D01*
X118770Y-67500D01*
X121309D01*
X122578Y-66230D01*
X130196Y-67500D02*
X125118D01*
X130196Y-62422D01*
Y-61152D01*
X128926Y-59882D01*
X126387D01*
X125118Y-61152D01*
X132735D02*
X134005Y-59882D01*
X136544D01*
X137813Y-61152D01*
Y-66230D01*
X136544Y-67500D01*
X134005D01*
X132735Y-66230D01*
Y-61152D01*
X-46418Y98849D02*
X-47688Y100118D01*
X-50227D01*
X-51497Y98849D01*
Y93770D01*
X-50227Y92501D01*
X-47688D01*
X-46418Y93770D01*
X-43879Y92501D02*
X-41340D01*
X-42609D01*
Y100118D01*
X-43879Y98849D01*
X-37531Y93770D02*
X-36261Y92501D01*
X-33722D01*
X-32453Y93770D01*
Y98849D01*
X-33722Y100118D01*
X-36261D01*
X-37531Y98849D01*
Y97579D01*
X-36261Y96309D01*
X-32453D01*
X-71922Y99348D02*
X-73191Y100618D01*
X-75730D01*
X-77000Y99348D01*
Y94270D01*
X-75730Y93000D01*
X-73191D01*
X-71922Y94270D01*
X-69383Y93000D02*
X-66843D01*
X-68113D01*
Y100618D01*
X-69383Y99348D01*
X-63035D02*
X-61765Y100618D01*
X-59226D01*
X-57956Y99348D01*
Y98078D01*
X-59226Y96809D01*
X-57956Y95539D01*
Y94270D01*
X-59226Y93000D01*
X-61765D01*
X-63035Y94270D01*
Y95539D01*
X-61765Y96809D01*
X-63035Y98078D01*
Y99348D01*
X-61765Y96809D02*
X-59226D01*
X-201922Y121848D02*
X-203191Y123118D01*
X-205730D01*
X-207000Y121848D01*
Y116770D01*
X-205730Y115500D01*
X-203191D01*
X-201922Y116770D01*
X-199382Y115500D02*
X-196843D01*
X-198113D01*
Y123118D01*
X-199382Y121848D01*
X-193034Y123118D02*
X-187956D01*
Y121848D01*
X-193034Y116770D01*
Y115500D01*
X-178922Y121848D02*
X-180191Y123118D01*
X-182730D01*
X-184000Y121848D01*
Y116770D01*
X-182730Y115500D01*
X-180191D01*
X-178922Y116770D01*
X-176383Y115500D02*
X-173843D01*
X-175113D01*
Y123118D01*
X-176383Y121848D01*
X-164956Y123118D02*
X-167495Y121848D01*
X-170035Y119309D01*
Y116770D01*
X-168765Y115500D01*
X-166226D01*
X-164956Y116770D01*
Y118039D01*
X-166226Y119309D01*
X-170035D01*
X-219726Y-10490D02*
X-220995Y-9220D01*
X-223534D01*
X-224804Y-10490D01*
Y-15568D01*
X-223534Y-16838D01*
X-220995D01*
X-219726Y-15568D01*
X-217187Y-16838D02*
X-214647D01*
X-215917D01*
Y-9220D01*
X-217187Y-10490D01*
X-205760Y-9220D02*
X-210839D01*
Y-13029D01*
X-208299Y-11760D01*
X-207030D01*
X-205760Y-13029D01*
Y-15568D01*
X-207030Y-16838D01*
X-209569D01*
X-210839Y-15568D01*
X-245380Y-9982D02*
X-246649Y-8712D01*
X-249188D01*
X-250458Y-9982D01*
Y-15060D01*
X-249188Y-16330D01*
X-246649D01*
X-245380Y-15060D01*
X-242840Y-16330D02*
X-240301D01*
X-241571D01*
Y-8712D01*
X-242840Y-9982D01*
X-232684Y-16330D02*
Y-8712D01*
X-236493Y-12521D01*
X-231414D01*
X-87922Y-114152D02*
X-89191Y-112882D01*
X-91730D01*
X-93000Y-114152D01*
Y-119230D01*
X-91730Y-120500D01*
X-89191D01*
X-87922Y-119230D01*
X-85382Y-120500D02*
X-82843D01*
X-84113D01*
Y-112882D01*
X-85382Y-114152D01*
X-79035D02*
X-77765Y-112882D01*
X-75226D01*
X-73956Y-114152D01*
Y-115422D01*
X-75226Y-116691D01*
X-76495D01*
X-75226D01*
X-73956Y-117961D01*
Y-119230D01*
X-75226Y-120500D01*
X-77765D01*
X-79035Y-119230D01*
X-63922Y-114152D02*
X-65191Y-112882D01*
X-67730D01*
X-69000Y-114152D01*
Y-119230D01*
X-67730Y-120500D01*
X-65191D01*
X-63922Y-119230D01*
X-61382Y-120500D02*
X-58843D01*
X-60113D01*
Y-112882D01*
X-61382Y-114152D01*
X-49956Y-120500D02*
X-55034D01*
X-49956Y-115422D01*
Y-114152D01*
X-51226Y-112882D01*
X-53765D01*
X-55034Y-114152D01*
X-63922Y-16652D02*
X-65191Y-15382D01*
X-67730D01*
X-69000Y-16652D01*
Y-21730D01*
X-67730Y-23000D01*
X-65191D01*
X-63922Y-21730D01*
X-61382Y-23000D02*
X-58843D01*
X-60113D01*
Y-15382D01*
X-61382Y-16652D01*
X-55034Y-23000D02*
X-52495D01*
X-53765D01*
Y-15382D01*
X-55034Y-16652D01*
X-38922Y-17652D02*
X-40191Y-16382D01*
X-42730D01*
X-44000Y-17652D01*
Y-22730D01*
X-42730Y-24000D01*
X-40191D01*
X-38922Y-22730D01*
X-36383Y-24000D02*
X-33843D01*
X-35113D01*
Y-16382D01*
X-36383Y-17652D01*
X-30034D02*
X-28765Y-16382D01*
X-26226D01*
X-24956Y-17652D01*
Y-22730D01*
X-26226Y-24000D01*
X-28765D01*
X-30034Y-22730D01*
Y-17652D01*
X82578Y-61152D02*
X81309Y-59882D01*
X78770D01*
X77500Y-61152D01*
Y-66230D01*
X78770Y-67500D01*
X81309D01*
X82578Y-66230D01*
X85118D02*
X86387Y-67500D01*
X88926D01*
X90196Y-66230D01*
Y-61152D01*
X88926Y-59882D01*
X86387D01*
X85118Y-61152D01*
Y-62422D01*
X86387Y-63691D01*
X90196D01*
X77578Y6348D02*
X76309Y7617D01*
X73770D01*
X72500Y6348D01*
Y1270D01*
X73770Y0D01*
X76309D01*
X77578Y1270D01*
X80118Y6348D02*
X81387Y7617D01*
X83926D01*
X85196Y6348D01*
Y5078D01*
X83926Y3809D01*
X85196Y2539D01*
Y1270D01*
X83926Y0D01*
X81387D01*
X80118Y1270D01*
Y2539D01*
X81387Y3809D01*
X80118Y5078D01*
Y6348D01*
X81387Y3809D02*
X83926D01*
X29078Y69348D02*
X27809Y70617D01*
X25270D01*
X24000Y69348D01*
Y64270D01*
X25270Y63000D01*
X27809D01*
X29078Y64270D01*
X31618Y70617D02*
X36696D01*
Y69348D01*
X31618Y64270D01*
Y63000D01*
X3078Y69348D02*
X1809Y70617D01*
X-730D01*
X-2000Y69348D01*
Y64270D01*
X-730Y63000D01*
X1809D01*
X3078Y64270D01*
X10696Y70617D02*
X8157Y69348D01*
X5617Y66809D01*
Y64270D01*
X6887Y63000D01*
X9426D01*
X10696Y64270D01*
Y65539D01*
X9426Y66809D01*
X5617D01*
X35078Y-23652D02*
X33809Y-22383D01*
X31270D01*
X30000Y-23652D01*
Y-28730D01*
X31270Y-30000D01*
X33809D01*
X35078Y-28730D01*
X42696Y-22383D02*
X37617D01*
Y-26191D01*
X40157Y-24922D01*
X41426D01*
X42696Y-26191D01*
Y-28730D01*
X41426Y-30000D01*
X38887D01*
X37617Y-28730D01*
X-21922Y68348D02*
X-23191Y69618D01*
X-25730D01*
X-27000Y68348D01*
Y63270D01*
X-25730Y62000D01*
X-23191D01*
X-21922Y63270D01*
X-15574Y62000D02*
Y69618D01*
X-19382Y65809D01*
X-14304D01*
X-254922Y-258652D02*
X-256191Y-257383D01*
X-258730D01*
X-260000Y-258652D01*
Y-263730D01*
X-258730Y-265000D01*
X-256191D01*
X-254922Y-263730D01*
X-252383Y-258652D02*
X-251113Y-257383D01*
X-248574D01*
X-247304Y-258652D01*
Y-259922D01*
X-248574Y-261191D01*
X-249843D01*
X-248574D01*
X-247304Y-262461D01*
Y-263730D01*
X-248574Y-265000D01*
X-251113D01*
X-252383Y-263730D01*
X-132422Y-166152D02*
X-133691Y-164883D01*
X-136230D01*
X-137500Y-166152D01*
Y-171230D01*
X-136230Y-172500D01*
X-133691D01*
X-132422Y-171230D01*
X-124804Y-172500D02*
X-129882D01*
X-124804Y-167422D01*
Y-166152D01*
X-126074Y-164883D01*
X-128613D01*
X-129882Y-166152D01*
X-182422D02*
X-183691Y-164883D01*
X-186230D01*
X-187500Y-166152D01*
Y-171230D01*
X-186230Y-172500D01*
X-183691D01*
X-182422Y-171230D01*
X-179883Y-172500D02*
X-177343D01*
X-178613D01*
Y-164883D01*
X-179883Y-166152D01*
X-132770Y239578D02*
X-137848D01*
X-139117Y238309D01*
Y235770D01*
X-137848Y234500D01*
X-132770D01*
X-131500Y235770D01*
Y238309D01*
X-134039Y237039D02*
X-131500Y239578D01*
Y238309D02*
X-132770Y239578D01*
X-131500Y247196D02*
Y242118D01*
X-136578Y247196D01*
X-137848D01*
X-139117Y245926D01*
Y243387D01*
X-137848Y242118D01*
X-126922Y324618D02*
X-129461D01*
X-128191D01*
Y318270D01*
X-129461Y317000D01*
X-130730D01*
X-132000Y318270D01*
X-124382Y317000D02*
Y324618D01*
X-120574D01*
X-119304Y323348D01*
Y320809D01*
X-120574Y319539D01*
X-124382D01*
X-111686Y324618D02*
X-116765D01*
Y320809D01*
X-114226Y322078D01*
X-112956D01*
X-111686Y320809D01*
Y318270D01*
X-112956Y317000D01*
X-115495D01*
X-116765Y318270D01*
X65000Y203000D02*
Y210618D01*
X68809D01*
X70078Y209348D01*
Y206809D01*
X68809Y205539D01*
X65000D01*
X67539D02*
X70078Y203000D01*
X72618D02*
X75157D01*
X73887D01*
Y210618D01*
X72618Y209348D01*
X78966Y203000D02*
X81505D01*
X80235D01*
Y210618D01*
X78966Y209348D01*
X-97500Y202500D02*
Y210117D01*
X-93691D01*
X-92422Y208848D01*
Y206309D01*
X-93691Y205039D01*
X-97500D01*
X-94961D02*
X-92422Y202500D01*
X-89882D02*
X-87343D01*
X-88613D01*
Y210117D01*
X-89882Y208848D01*
X-78456Y202500D02*
X-83534D01*
X-78456Y207578D01*
Y208848D01*
X-79726Y210117D01*
X-82265D01*
X-83534Y208848D01*
X-178000Y202000D02*
Y209618D01*
X-174191D01*
X-172922Y208348D01*
Y205809D01*
X-174191Y204539D01*
X-178000D01*
X-175461D02*
X-172922Y202000D01*
X-170382D02*
X-167843D01*
X-169113D01*
Y209618D01*
X-170382Y208348D01*
X-164035D02*
X-162765Y209618D01*
X-160226D01*
X-158956Y208348D01*
Y207078D01*
X-160226Y205809D01*
X-161495D01*
X-160226D01*
X-158956Y204539D01*
Y203270D01*
X-160226Y202000D01*
X-162765D01*
X-164035Y203270D01*
X-16000Y201500D02*
Y209118D01*
X-12191D01*
X-10922Y207848D01*
Y205309D01*
X-12191Y204039D01*
X-16000D01*
X-13461D02*
X-10922Y201500D01*
X-8382D02*
X-5843D01*
X-7113D01*
Y209118D01*
X-8382Y207848D01*
X1774Y201500D02*
Y209118D01*
X-2034Y205309D01*
X3044D01*
X250000Y110000D02*
Y117618D01*
X253809D01*
X255078Y116348D01*
Y113809D01*
X253809Y112539D01*
X250000D01*
X252539D02*
X255078Y110000D01*
X257617Y117618D02*
X262696Y110000D01*
Y117618D02*
X257617Y110000D01*
X265235Y108730D02*
X270313D01*
X277931Y116348D02*
X276661Y117618D01*
X274122D01*
X272853Y116348D01*
Y111270D01*
X274122Y110000D01*
X276661D01*
X277931Y111270D01*
X280470Y117618D02*
Y110000D01*
Y113809D01*
X285548D01*
Y117618D01*
Y110000D01*
X291896D02*
Y117618D01*
X288088Y113809D01*
X293166D01*
X250000Y135000D02*
Y142618D01*
X253809D01*
X255078Y141348D01*
Y138809D01*
X253809Y137539D01*
X250000D01*
X252539D02*
X255078Y135000D01*
X257617Y142618D02*
X262696Y135000D01*
Y142618D02*
X257617Y135000D01*
X265235Y133730D02*
X270313D01*
X277931Y141348D02*
X276661Y142618D01*
X274122D01*
X272853Y141348D01*
Y136270D01*
X274122Y135000D01*
X276661D01*
X277931Y136270D01*
X280470Y142618D02*
Y135000D01*
Y138809D01*
X285548D01*
Y142618D01*
Y135000D01*
X288088Y141348D02*
X289357Y142618D01*
X291896D01*
X293166Y141348D01*
Y140078D01*
X291896Y138809D01*
X290627D01*
X291896D01*
X293166Y137539D01*
Y136270D01*
X291896Y135000D01*
X289357D01*
X288088Y136270D01*
X250000Y160000D02*
Y167618D01*
X253809D01*
X255078Y166348D01*
Y163809D01*
X253809Y162539D01*
X250000D01*
X252539D02*
X255078Y160000D01*
X257617Y167618D02*
X262696Y160000D01*
Y167618D02*
X257617Y160000D01*
X265235Y158730D02*
X270313D01*
X277931Y166348D02*
X276661Y167618D01*
X274122D01*
X272853Y166348D01*
Y161270D01*
X274122Y160000D01*
X276661D01*
X277931Y161270D01*
X280470Y167618D02*
Y160000D01*
Y163809D01*
X285548D01*
Y167618D01*
Y160000D01*
X293166D02*
X288088D01*
X293166Y165078D01*
Y166348D01*
X291896Y167618D01*
X289357D01*
X288088Y166348D01*
X252500Y185000D02*
Y192618D01*
X256309D01*
X257578Y191348D01*
Y188809D01*
X256309Y187539D01*
X252500D01*
X255039D02*
X257578Y185000D01*
X260117Y192618D02*
X265196Y185000D01*
Y192618D02*
X260117Y185000D01*
X267735Y183730D02*
X272813D01*
X280431Y191348D02*
X279161Y192618D01*
X276622D01*
X275353Y191348D01*
Y186270D01*
X276622Y185000D01*
X279161D01*
X280431Y186270D01*
X282970Y192618D02*
Y185000D01*
Y188809D01*
X288048D01*
Y192618D01*
Y185000D01*
X290588D02*
X293127D01*
X291857D01*
Y192618D01*
X290588Y191348D01*
X-121248Y272078D02*
X-122517Y270809D01*
Y268270D01*
X-121248Y267000D01*
X-119978D01*
X-118709Y268270D01*
Y270809D01*
X-117439Y272078D01*
X-116170D01*
X-114900Y270809D01*
Y268270D01*
X-116170Y267000D01*
X-97517Y269578D02*
Y264500D01*
X-93709D01*
X-94978Y267039D01*
Y268309D01*
X-93709Y269578D01*
X-91170D01*
X-89900Y268309D01*
Y265770D01*
X-91170Y264500D01*
X-97517Y272118D02*
X-92439D01*
X-89900Y274657D01*
X-92439Y277196D01*
X-97517D01*
X-70248Y265578D02*
X-71518Y264309D01*
Y261770D01*
X-70248Y260500D01*
X-65170D01*
X-63900Y261770D01*
Y264309D01*
X-65170Y265578D01*
X-67709D01*
Y263039D01*
X-63900Y268118D02*
X-71518D01*
X-63900Y273196D01*
X-71518D01*
Y275735D02*
X-63900D01*
Y279544D01*
X-65170Y280814D01*
X-70248D01*
X-71518Y279544D01*
Y275735D01*
X40852Y272078D02*
X39582Y270809D01*
Y268270D01*
X40852Y267000D01*
X42122D01*
X43391Y268270D01*
Y270809D01*
X44661Y272078D01*
X45930D01*
X47200Y270809D01*
Y268270D01*
X45930Y267000D01*
X64582Y269578D02*
Y264500D01*
X68391D01*
X67122Y267039D01*
Y268309D01*
X68391Y269578D01*
X70930D01*
X72200Y268309D01*
Y265770D01*
X70930Y264500D01*
X64582Y272118D02*
X69661D01*
X72200Y274657D01*
X69661Y277196D01*
X64582D01*
X91852Y265578D02*
X90582Y264309D01*
Y261770D01*
X91852Y260500D01*
X96930D01*
X98200Y261770D01*
Y264309D01*
X96930Y265578D01*
X94391D01*
Y263039D01*
X98200Y268118D02*
X90582D01*
X98200Y273196D01*
X90582D01*
Y275735D02*
X98200D01*
Y279544D01*
X96930Y280814D01*
X91852D01*
X90582Y279544D01*
Y275735D01*
X-202248Y272078D02*
X-203518Y270809D01*
Y268270D01*
X-202248Y267000D01*
X-200978D01*
X-199709Y268270D01*
Y270809D01*
X-198439Y272078D01*
X-197170D01*
X-195900Y270809D01*
Y268270D01*
X-197170Y267000D01*
X-178518Y269578D02*
Y264500D01*
X-174709D01*
X-175978Y267039D01*
Y268309D01*
X-174709Y269578D01*
X-172170D01*
X-170900Y268309D01*
Y265770D01*
X-172170Y264500D01*
X-178518Y272118D02*
X-173439D01*
X-170900Y274657D01*
X-173439Y277196D01*
X-178518D01*
X-151248Y265578D02*
X-152518Y264309D01*
Y261770D01*
X-151248Y260500D01*
X-146170D01*
X-144900Y261770D01*
Y264309D01*
X-146170Y265578D01*
X-148709D01*
Y263039D01*
X-144900Y268118D02*
X-152518D01*
X-144900Y273196D01*
X-152518D01*
Y275735D02*
X-144900D01*
Y279544D01*
X-146170Y280814D01*
X-151248D01*
X-152518Y279544D01*
Y275735D01*
X-40248Y272078D02*
X-41518Y270809D01*
Y268270D01*
X-40248Y267000D01*
X-38978D01*
X-37709Y268270D01*
Y270809D01*
X-36439Y272078D01*
X-35170D01*
X-33900Y270809D01*
Y268270D01*
X-35170Y267000D01*
X-16517Y269578D02*
Y264500D01*
X-12709D01*
X-13978Y267039D01*
Y268309D01*
X-12709Y269578D01*
X-10170D01*
X-8900Y268309D01*
Y265770D01*
X-10170Y264500D01*
X-16517Y272118D02*
X-11439D01*
X-8900Y274657D01*
X-11439Y277196D01*
X-16517D01*
X10752Y265578D02*
X9482Y264309D01*
Y261770D01*
X10752Y260500D01*
X15830D01*
X17100Y261770D01*
Y264309D01*
X15830Y265578D01*
X13291D01*
Y263039D01*
X17100Y268118D02*
X9482D01*
X17100Y273196D01*
X9482D01*
Y275735D02*
X17100D01*
Y279544D01*
X15830Y280814D01*
X10752D01*
X9482Y279544D01*
Y275735D01*
X-322000Y-172652D02*
X-320730Y-171383D01*
X-318191D01*
X-316922Y-172652D01*
Y-177730D01*
X-318191Y-179000D01*
X-320730D01*
X-322000Y-177730D01*
Y-172652D01*
X-320000Y-128000D02*
X-317461D01*
X-318730D01*
Y-120382D01*
X-320000Y-121652D01*
X-260000Y-146383D02*
Y-154000D01*
X-256191D01*
X-254922Y-152730D01*
Y-151461D01*
X-256191Y-150191D01*
X-260000D01*
X-256191D01*
X-254922Y-148922D01*
Y-147652D01*
X-256191Y-146383D01*
X-260000D01*
X-252383Y-154000D02*
X-249843D01*
X-251113D01*
Y-146383D01*
X-252383Y-147652D01*
X-330000Y-145382D02*
Y-153000D01*
X-326191D01*
X-324922Y-151730D01*
Y-150461D01*
X-326191Y-149191D01*
X-330000D01*
X-326191D01*
X-324922Y-147922D01*
Y-146652D01*
X-326191Y-145382D01*
X-330000D01*
X-322383Y-146652D02*
X-321113Y-145382D01*
X-318574D01*
X-317304Y-146652D01*
Y-151730D01*
X-318574Y-153000D01*
X-321113D01*
X-322383Y-151730D01*
Y-146652D01*
X-205000Y-246400D02*
X-197383D01*
Y-250209D01*
X-198652Y-251478D01*
X-201191D01*
X-202461Y-250209D01*
Y-246400D01*
Y-248939D02*
X-205000Y-251478D01*
X-198652Y-259096D02*
X-197383Y-257826D01*
Y-255287D01*
X-198652Y-254018D01*
X-199922D01*
X-201191Y-255287D01*
Y-257826D01*
X-202461Y-259096D01*
X-203730D01*
X-205000Y-257826D01*
Y-255287D01*
X-203730Y-254018D01*
X-197383Y-261635D02*
Y-266713D01*
Y-264174D01*
X-205000D01*
X199852Y267578D02*
X198582Y266309D01*
Y263770D01*
X199852Y262500D01*
X204930D01*
X206200Y263770D01*
Y266309D01*
X204930Y267578D01*
X202391D01*
Y265039D01*
X206200Y270117D02*
X198582D01*
X206200Y275196D01*
X198582D01*
Y277735D02*
X206200D01*
Y281544D01*
X204930Y282813D01*
X199852D01*
X198582Y281544D01*
Y277735D01*
X224852Y267578D02*
X223582Y266309D01*
Y263770D01*
X224852Y262500D01*
X229930D01*
X231200Y263770D01*
Y266309D01*
X229930Y267578D01*
X227391D01*
Y265039D01*
X231200Y270117D02*
X223582D01*
X231200Y275196D01*
X223582D01*
Y277735D02*
X231200D01*
Y281544D01*
X229930Y282813D01*
X224852D01*
X223582Y281544D01*
Y277735D01*
X148582Y275078D02*
Y270000D01*
X152391D01*
X151122Y272539D01*
Y273809D01*
X152391Y275078D01*
X154930D01*
X156200Y273809D01*
Y271270D01*
X154930Y270000D01*
X148582Y277617D02*
X153661D01*
X156200Y280157D01*
X153661Y282696D01*
X148582D01*
X173582Y275078D02*
Y270000D01*
X177391D01*
X176122Y272539D01*
Y273809D01*
X177391Y275078D01*
X179930D01*
X181200Y273809D01*
Y271270D01*
X179930Y270000D01*
X173582Y277617D02*
X178661D01*
X181200Y280157D01*
X178661Y282696D01*
X173582D01*
X-277422Y-20352D02*
X-278691Y-19082D01*
X-281230D01*
X-282500Y-20352D01*
Y-21622D01*
X-281230Y-22891D01*
X-278691D01*
X-277422Y-24161D01*
Y-25430D01*
X-278691Y-26700D01*
X-281230D01*
X-282500Y-25430D01*
X-274883Y-19082D02*
Y-26700D01*
X-272343Y-24161D01*
X-269804Y-26700D01*
Y-19082D01*
X-263456D02*
X-265995D01*
X-267265Y-20352D01*
Y-25430D01*
X-265995Y-26700D01*
X-263456D01*
X-262187Y-25430D01*
Y-20352D01*
X-263456Y-19082D01*
X-277422Y31348D02*
X-278691Y32617D01*
X-281230D01*
X-282500Y31348D01*
Y30078D01*
X-281230Y28809D01*
X-278691D01*
X-277422Y27539D01*
Y26270D01*
X-278691Y25000D01*
X-281230D01*
X-282500Y26270D01*
X-274883Y32617D02*
Y25000D01*
X-272343Y27539D01*
X-269804Y25000D01*
Y32617D01*
X-262187Y31348D02*
X-263456Y32617D01*
X-265995D01*
X-267265Y31348D01*
Y26270D01*
X-265995Y25000D01*
X-263456D01*
X-262187Y26270D01*
X-259647Y32617D02*
Y25000D01*
X-254569D01*
X-252030Y32617D02*
Y25000D01*
Y27539D01*
X-246952Y32617D01*
X-250760Y28809D01*
X-246952Y25000D01*
X-278422Y4648D02*
X-279691Y5918D01*
X-282230D01*
X-283500Y4648D01*
Y3378D01*
X-282230Y2109D01*
X-279691D01*
X-278422Y839D01*
Y-430D01*
X-279691Y-1700D01*
X-282230D01*
X-283500Y-430D01*
X-275882Y5918D02*
Y-1700D01*
X-273343Y839D01*
X-270804Y-1700D01*
Y5918D01*
X-268265D02*
Y-1700D01*
X-264456D01*
X-263187Y-430D01*
Y4648D01*
X-264456Y5918D01*
X-268265D01*
X-260647D02*
X-258108D01*
X-259378D01*
Y-1700D01*
X-260647D01*
X-258108D01*
X-250491Y5918D02*
X-253030D01*
X-254299Y4648D01*
Y-430D01*
X-253030Y-1700D01*
X-250491D01*
X-249221Y-430D01*
Y4648D01*
X-250491Y5918D01*
X-283500Y-46352D02*
X-282230Y-45083D01*
X-279691D01*
X-278422Y-46352D01*
Y-47622D01*
X-279691Y-48891D01*
X-280961D01*
X-279691D01*
X-278422Y-50161D01*
Y-51430D01*
X-279691Y-52700D01*
X-282230D01*
X-283500Y-51430D01*
X-275882Y-52700D02*
Y-51430D01*
X-274613D01*
Y-52700D01*
X-275882D01*
X-269534Y-46352D02*
X-268265Y-45083D01*
X-265726D01*
X-264456Y-46352D01*
Y-47622D01*
X-265726Y-48891D01*
X-266995D01*
X-265726D01*
X-264456Y-50161D01*
Y-51430D01*
X-265726Y-52700D01*
X-268265D01*
X-269534Y-51430D01*
X-261917Y-45083D02*
Y-50161D01*
X-259378Y-52700D01*
X-256839Y-50161D01*
Y-45083D01*
X-277422Y-71352D02*
X-278691Y-70083D01*
X-281230D01*
X-282500Y-71352D01*
Y-76430D01*
X-281230Y-77700D01*
X-278691D01*
X-277422Y-76430D01*
Y-73891D01*
X-279961D01*
X-274883Y-77700D02*
Y-70083D01*
X-269804Y-77700D01*
Y-70083D01*
X-267265D02*
Y-77700D01*
X-263456D01*
X-262187Y-76430D01*
Y-71352D01*
X-263456Y-70083D01*
X-267265D01*
D42*
X77500Y-12618D02*
X87657D01*
X162500D02*
X172657D01*
X167578Y-17696D02*
Y-7539D01*
X-237500Y230117D02*
X-247657D01*
X-235000Y130118D02*
X-245157D01*
X-240078Y135196D02*
Y125039D01*
X232500Y-39883D02*
X222343D01*
X235000Y-159882D02*
X224843D01*
X229922Y-154804D02*
Y-164961D01*
M02*
