G04 Layer_Physical_Order=2*
G04 Layer_Color=16711680*
%FSLAX44Y44*%
%MOMM*%
G71*
G01*
G75*
%ADD28C,0.3000*%
%ADD31C,1.8000*%
%ADD32R,1.8000X1.8000*%
G04:AMPARAMS|DCode=33|XSize=2mm|YSize=1.2mm|CornerRadius=0.3mm|HoleSize=0mm|Usage=FLASHONLY|Rotation=90.000|XOffset=0mm|YOffset=0mm|HoleType=Round|Shape=RoundedRectangle|*
%AMROUNDEDRECTD33*
21,1,2.0000,0.6000,0,0,90.0*
21,1,1.4000,1.2000,0,0,90.0*
1,1,0.6000,0.3000,0.7000*
1,1,0.6000,0.3000,-0.7000*
1,1,0.6000,-0.3000,-0.7000*
1,1,0.6000,-0.3000,0.7000*
%
%ADD33ROUNDEDRECTD33*%
%ADD34O,2.0000X1.6000*%
%ADD35O,1.6000X2.0000*%
%ADD36R,1.6000X2.0000*%
%ADD37R,1.7000X1.7000*%
%ADD38C,1.7000*%
%ADD39C,0.6000*%
G36*
X187500Y215000D02*
X202500Y215000D01*
Y10000D01*
X137500D01*
Y30000D01*
X185000Y30000D01*
Y197500D01*
X142500D01*
Y310000D01*
X187500Y310000D01*
X187500Y215000D01*
D02*
G37*
G36*
X102500Y180000D02*
X-252500D01*
X-252500Y137500D01*
X142500D01*
Y195000D01*
X182500D01*
Y32500D01*
X135000D01*
Y10000D01*
X95884D01*
X59442Y46442D01*
X58780Y46884D01*
X58000Y47039D01*
X57961D01*
X57500Y47500D01*
X-32500D01*
Y70000D01*
X-75000D01*
Y107042D01*
X-74973Y109069D01*
X-74974Y109075D01*
X-74973Y109082D01*
X-75000Y109224D01*
Y112500D01*
X-207500D01*
Y87500D01*
X-182500D01*
Y72207D01*
X-183523Y71523D01*
X-224957Y30089D01*
X-225000Y30098D01*
X-226951Y29710D01*
X-228605Y28605D01*
X-229710Y26951D01*
X-230098Y25000D01*
X-229710Y23049D01*
X-228605Y21395D01*
X-226951Y20290D01*
X-225000Y19902D01*
X-223049Y20290D01*
X-221395Y21395D01*
X-220290Y23049D01*
X-219902Y25000D01*
X-219911Y25043D01*
X-183673Y61280D01*
X-182500Y60794D01*
Y-35000D01*
X-315000D01*
Y-60000D01*
X-227500Y-60000D01*
X-227500Y-110000D01*
X-247500D01*
Y-172500D01*
X-210000D01*
X-210000Y-236292D01*
X-211265Y-236557D01*
X-212868Y-234468D01*
X-214957Y-232865D01*
X-217390Y-231857D01*
X-220000Y-231514D01*
X-224000D01*
X-226611Y-231857D01*
X-229043Y-232865D01*
X-231132Y-234468D01*
X-232735Y-236557D01*
X-233743Y-238990D01*
X-234086Y-241600D01*
X-233743Y-244210D01*
X-232735Y-246643D01*
X-231132Y-248732D01*
X-229043Y-250335D01*
X-226611Y-251343D01*
X-224000Y-251686D01*
X-220000D01*
X-217390Y-251343D01*
X-214957Y-250335D01*
X-212868Y-248732D01*
X-211265Y-246643D01*
X-210000Y-246908D01*
X-210000Y-287092D01*
X-211265Y-287357D01*
X-212868Y-285268D01*
X-214957Y-283665D01*
X-217390Y-282657D01*
X-220000Y-282314D01*
X-224000D01*
X-226611Y-282657D01*
X-229043Y-283665D01*
X-231132Y-285268D01*
X-232735Y-287357D01*
X-233743Y-289790D01*
X-234086Y-292400D01*
X-233743Y-295011D01*
X-232735Y-297443D01*
X-231132Y-299532D01*
X-229043Y-301135D01*
X-226611Y-302143D01*
X-224000Y-302486D01*
X-220000D01*
X-217390Y-302143D01*
X-214957Y-301135D01*
X-212868Y-299532D01*
X-211265Y-297443D01*
X-210000Y-297708D01*
Y-305000D01*
X-190000D01*
Y-257500D01*
X-85000D01*
Y-290000D01*
X-25000Y-290000D01*
X-22500Y-290000D01*
Y-275000D01*
X-72500D01*
Y-242500D01*
X-190000D01*
Y-95000D01*
X-22500D01*
X-22500Y-7500D01*
X-45000D01*
X-45000Y20000D01*
X54116D01*
X88058Y-13942D01*
X88720Y-14384D01*
X89500Y-14539D01*
X89539D01*
X90000Y-15000D01*
X230000D01*
Y217500D01*
X190000D01*
Y310000D01*
X240000D01*
X317500Y232500D01*
Y199573D01*
X316230Y198559D01*
X314500Y198786D01*
X310500D01*
X307889Y198443D01*
X305457Y197435D01*
X303368Y195832D01*
X301765Y193743D01*
X300757Y191311D01*
X300414Y188700D01*
X300757Y186089D01*
X301765Y183657D01*
X303368Y181568D01*
X305457Y179965D01*
X307889Y178957D01*
X310500Y178614D01*
X314500D01*
X316230Y178841D01*
X317500Y177827D01*
Y174172D01*
X316230Y173158D01*
X314500Y173386D01*
X310500D01*
X307889Y173043D01*
X305457Y172035D01*
X303368Y170432D01*
X301765Y168343D01*
X300757Y165910D01*
X300414Y163300D01*
X300757Y160690D01*
X301765Y158257D01*
X303368Y156168D01*
X305457Y154565D01*
X307889Y153557D01*
X310500Y153214D01*
X314500D01*
X316230Y153441D01*
X317500Y152427D01*
Y148772D01*
X316230Y147759D01*
X314500Y147986D01*
X310500D01*
X307889Y147643D01*
X305457Y146635D01*
X303368Y145032D01*
X301765Y142943D01*
X300757Y140511D01*
X300414Y137900D01*
X300757Y135289D01*
X301765Y132857D01*
X303368Y130768D01*
X305457Y129165D01*
X307889Y128157D01*
X310500Y127814D01*
X314500D01*
X316230Y128041D01*
X317500Y127027D01*
Y123372D01*
X316230Y122359D01*
X314500Y122586D01*
X310500D01*
X307889Y122243D01*
X305457Y121235D01*
X303368Y119632D01*
X301765Y117543D01*
X300757Y115111D01*
X300414Y112500D01*
X300757Y109889D01*
X301765Y107457D01*
X303368Y105368D01*
X305457Y103765D01*
X307889Y102757D01*
X310500Y102414D01*
X314500D01*
X316230Y102641D01*
X317500Y101627D01*
Y-137500D01*
X337500D01*
X337500Y-250000D01*
X262500Y-325000D01*
X-262500Y-325000D01*
X-325000Y-262500D01*
X-325000Y262500D01*
X-262500Y325000D01*
X102500Y325000D01*
X102500Y180000D01*
D02*
G37*
G36*
X275000Y325000D02*
X337500Y262500D01*
X337500Y-132500D01*
X320000Y-132500D01*
X320000Y104115D01*
X321632Y105368D01*
X323235Y107457D01*
X324243Y109889D01*
X324586Y112500D01*
X324243Y115111D01*
X323235Y117543D01*
X321632Y119632D01*
X320000Y120884D01*
Y129515D01*
X321632Y130768D01*
X323235Y132857D01*
X324243Y135289D01*
X324586Y137900D01*
X324243Y140511D01*
X323235Y142943D01*
X321632Y145032D01*
X320000Y146284D01*
Y154916D01*
X321632Y156168D01*
X323235Y158257D01*
X324243Y160690D01*
X324586Y163300D01*
X324243Y165910D01*
X323235Y168343D01*
X321632Y170432D01*
X320000Y171684D01*
Y180315D01*
X321632Y181568D01*
X323235Y183657D01*
X324243Y186089D01*
X324586Y188700D01*
X324243Y191311D01*
X323235Y193743D01*
X321632Y195832D01*
X320000Y197084D01*
Y232500D01*
X319425Y233075D01*
X319384Y233280D01*
X318942Y233942D01*
X318942Y233942D01*
X241442Y311442D01*
X240780Y311884D01*
X240575Y311925D01*
X240000Y312500D01*
X140000Y312500D01*
X140000Y140000D01*
X-250000Y140000D01*
X-250000Y177500D01*
X105000Y177500D01*
X105000Y325000D01*
X275000Y325000D01*
D02*
G37*
G36*
X227500Y-12500D02*
X89500Y-12500D01*
X54500Y22500D01*
X-25000Y22500D01*
X-25000Y22500D01*
X-47500D01*
Y-10000D01*
X-25000D01*
Y-92500D01*
X-192500Y-92500D01*
X-192500Y-245000D01*
X-75000Y-245000D01*
X-75000Y-277500D01*
X-25000D01*
X-25000Y-287500D01*
X-82500D01*
Y-255000D01*
X-192500D01*
X-192500Y-302500D01*
X-206616Y-302500D01*
X-207514Y-301602D01*
X-207492Y-170000D01*
X-245000Y-170000D01*
X-245000Y-113398D01*
X-244102Y-112500D01*
X-225000Y-112500D01*
X-225000Y-57500D01*
X-312500Y-57500D01*
Y-37500D01*
X-180000Y-37500D01*
X-180000Y64953D01*
X-179522Y65431D01*
X-165629D01*
X-165605Y65395D01*
X-163951Y64290D01*
X-162000Y63902D01*
X-160049Y64290D01*
X-158395Y65395D01*
X-157290Y67049D01*
X-156902Y69000D01*
X-157290Y70951D01*
X-158395Y72605D01*
X-160049Y73710D01*
X-162000Y74098D01*
X-163951Y73710D01*
X-165605Y72605D01*
X-165629Y72569D01*
X-180000D01*
Y90000D01*
X-205000Y90000D01*
X-205000Y110000D01*
X-77904Y110000D01*
X-77012Y109096D01*
X-77567Y67500D01*
X-35000D01*
X-35000Y45000D01*
X58000Y45000D01*
X95500Y7500D01*
X205000Y7500D01*
X205000Y215000D01*
X227500Y215000D01*
X227500Y-12500D01*
D02*
G37*
%LPC*%
G36*
X-267800Y-113061D02*
X-284800D01*
X-285580Y-113216D01*
X-286242Y-113658D01*
X-286684Y-114320D01*
X-286839Y-115100D01*
Y-132100D01*
X-286684Y-132880D01*
X-286242Y-133542D01*
X-285580Y-133984D01*
X-284800Y-134139D01*
X-267800D01*
X-267020Y-133984D01*
X-266358Y-133542D01*
X-265916Y-132880D01*
X-265761Y-132100D01*
Y-115100D01*
X-265916Y-114320D01*
X-266358Y-113658D01*
X-267020Y-113216D01*
X-267800Y-113061D01*
D02*
G37*
G36*
X-293200D02*
X-310200D01*
X-310980Y-113216D01*
X-311642Y-113658D01*
X-312084Y-114320D01*
X-312239Y-115100D01*
Y-132100D01*
X-312084Y-132880D01*
X-311642Y-133542D01*
X-310980Y-133984D01*
X-310200Y-134139D01*
X-293200D01*
X-292420Y-133984D01*
X-291758Y-133542D01*
X-291316Y-132880D01*
X-291161Y-132100D01*
Y-115100D01*
X-291316Y-114320D01*
X-291758Y-113658D01*
X-292420Y-113216D01*
X-293200Y-113061D01*
D02*
G37*
G36*
X-111900Y311539D02*
X-127900D01*
X-128680Y311384D01*
X-129342Y310942D01*
X-129784Y310280D01*
X-129939Y309500D01*
Y289500D01*
X-129784Y288720D01*
X-129342Y288058D01*
X-128680Y287616D01*
X-127900Y287461D01*
X-111900D01*
X-111120Y287616D01*
X-110458Y288058D01*
X-110016Y288720D01*
X-109861Y289500D01*
Y309500D01*
X-110016Y310280D01*
X-110458Y310942D01*
X-111120Y311384D01*
X-111900Y311539D01*
D02*
G37*
G36*
X176000Y-23961D02*
X158000D01*
X157220Y-24116D01*
X156558Y-24558D01*
X156116Y-25220D01*
X155961Y-26000D01*
Y-44000D01*
X156116Y-44780D01*
X156558Y-45442D01*
X157220Y-45884D01*
X158000Y-46039D01*
X176000D01*
X176780Y-45884D01*
X177442Y-45442D01*
X177884Y-44780D01*
X178039Y-44000D01*
Y-26000D01*
X177884Y-25220D01*
X177442Y-24558D01*
X176780Y-24116D01*
X176000Y-23961D01*
D02*
G37*
G36*
X83000Y-23905D02*
X80128Y-24283D01*
X77453Y-25391D01*
X75155Y-27155D01*
X73391Y-29453D01*
X72283Y-32128D01*
X71905Y-35000D01*
X72283Y-37872D01*
X73391Y-40547D01*
X75155Y-42845D01*
X77453Y-44608D01*
X80128Y-45717D01*
X83000Y-46095D01*
X85872Y-45717D01*
X88547Y-44608D01*
X90845Y-42845D01*
X92608Y-40547D01*
X93717Y-37872D01*
X94095Y-35000D01*
X93717Y-32128D01*
X92608Y-29453D01*
X90845Y-27155D01*
X88547Y-25391D01*
X85872Y-24283D01*
X83000Y-23905D01*
D02*
G37*
G36*
X-301700Y-163809D02*
X-304441Y-164170D01*
X-306995Y-165228D01*
X-309189Y-166911D01*
X-310872Y-169105D01*
X-311930Y-171659D01*
X-312291Y-174400D01*
X-311930Y-177141D01*
X-310872Y-179695D01*
X-309189Y-181889D01*
X-306995Y-183572D01*
X-304441Y-184630D01*
X-301700Y-184991D01*
X-298959Y-184630D01*
X-296405Y-183572D01*
X-294211Y-181889D01*
X-292528Y-179695D01*
X-291470Y-177141D01*
X-291109Y-174400D01*
X-291470Y-171659D01*
X-292528Y-169105D01*
X-294211Y-166911D01*
X-296405Y-165228D01*
X-298959Y-164170D01*
X-301700Y-163809D01*
D02*
G37*
G36*
X-40000Y-184902D02*
X-41951Y-185290D01*
X-43605Y-186395D01*
X-44710Y-188049D01*
X-45098Y-190000D01*
X-44710Y-191950D01*
X-43605Y-193604D01*
X-41951Y-194709D01*
X-40000Y-195098D01*
X-38049Y-194709D01*
X-36395Y-193604D01*
X-36371Y-193569D01*
X-28629D01*
X-28605Y-193605D01*
X-26951Y-194710D01*
X-25000Y-195098D01*
X-23049Y-194710D01*
X-21395Y-193605D01*
X-20290Y-191951D01*
X-19902Y-190000D01*
X-20290Y-188049D01*
X-21395Y-186395D01*
X-23049Y-185290D01*
X-25000Y-184902D01*
X-26951Y-185290D01*
X-28605Y-186395D01*
X-28629Y-186432D01*
X-36371D01*
X-36395Y-186395D01*
X-38049Y-185290D01*
X-40000Y-184902D01*
D02*
G37*
G36*
X-276300Y-163809D02*
X-279041Y-164170D01*
X-281595Y-165228D01*
X-283789Y-166911D01*
X-285472Y-169105D01*
X-286530Y-171659D01*
X-286891Y-174400D01*
X-286530Y-177141D01*
X-285472Y-179695D01*
X-283789Y-181889D01*
X-281595Y-183572D01*
X-279041Y-184630D01*
X-276300Y-184991D01*
X-273559Y-184630D01*
X-271005Y-183572D01*
X-268811Y-181889D01*
X-267128Y-179695D01*
X-266070Y-177141D01*
X-265709Y-174400D01*
X-266070Y-171659D01*
X-267128Y-169105D01*
X-268811Y-166911D01*
X-271005Y-165228D01*
X-273559Y-164170D01*
X-276300Y-163809D01*
D02*
G37*
G36*
Y-138409D02*
X-279041Y-138770D01*
X-281595Y-139828D01*
X-283789Y-141511D01*
X-285472Y-143705D01*
X-286530Y-146259D01*
X-286891Y-149000D01*
X-286530Y-151741D01*
X-285472Y-154295D01*
X-283789Y-156489D01*
X-281595Y-158172D01*
X-279041Y-159230D01*
X-276300Y-159591D01*
X-273559Y-159230D01*
X-271005Y-158172D01*
X-268811Y-156489D01*
X-267128Y-154295D01*
X-266070Y-151741D01*
X-265709Y-149000D01*
X-266070Y-146259D01*
X-267128Y-143705D01*
X-268811Y-141511D01*
X-271005Y-139828D01*
X-273559Y-138770D01*
X-276300Y-138409D01*
D02*
G37*
G36*
X-301700D02*
X-304441Y-138770D01*
X-306995Y-139828D01*
X-309189Y-141511D01*
X-310872Y-143705D01*
X-311930Y-146259D01*
X-312291Y-149000D01*
X-311930Y-151741D01*
X-310872Y-154295D01*
X-309189Y-156489D01*
X-306995Y-158172D01*
X-304441Y-159230D01*
X-301700Y-159591D01*
X-298959Y-159230D01*
X-296405Y-158172D01*
X-294211Y-156489D01*
X-292528Y-154295D01*
X-291470Y-151741D01*
X-291109Y-149000D01*
X-291470Y-146259D01*
X-292528Y-143705D01*
X-294211Y-141511D01*
X-296405Y-139828D01*
X-298959Y-138770D01*
X-301700Y-138409D01*
D02*
G37*
G36*
X-298000Y-12414D02*
X-302000D01*
X-304611Y-12757D01*
X-307043Y-13765D01*
X-309132Y-15368D01*
X-310735Y-17457D01*
X-311743Y-19890D01*
X-312086Y-22500D01*
X-311743Y-25110D01*
X-310735Y-27543D01*
X-309132Y-29632D01*
X-307043Y-31235D01*
X-304611Y-32243D01*
X-302000Y-32586D01*
X-298000D01*
X-295389Y-32243D01*
X-292957Y-31235D01*
X-290868Y-29632D01*
X-289265Y-27543D01*
X-288257Y-25110D01*
X-287914Y-22500D01*
X-288257Y-19890D01*
X-289265Y-17457D01*
X-290868Y-15368D01*
X-292957Y-13765D01*
X-295389Y-12757D01*
X-298000Y-12414D01*
D02*
G37*
G36*
X-175500Y311586D02*
X-178111Y311243D01*
X-180543Y310235D01*
X-182632Y308632D01*
X-184235Y306543D01*
X-185243Y304111D01*
X-185586Y301500D01*
Y297500D01*
X-185243Y294890D01*
X-184235Y292457D01*
X-182632Y290368D01*
X-180543Y288765D01*
X-178111Y287757D01*
X-175500Y287414D01*
X-172889Y287757D01*
X-170457Y288765D01*
X-168368Y290368D01*
X-166765Y292457D01*
X-165757Y294890D01*
X-165414Y297500D01*
Y301500D01*
X-165757Y304111D01*
X-166765Y306543D01*
X-168368Y308632D01*
X-170457Y310235D01*
X-172889Y311243D01*
X-175500Y311586D01*
D02*
G37*
G36*
X-192900Y311539D02*
X-208900D01*
X-209680Y311384D01*
X-210342Y310942D01*
X-210784Y310280D01*
X-210939Y309500D01*
Y289500D01*
X-210784Y288720D01*
X-210342Y288058D01*
X-209680Y287616D01*
X-208900Y287461D01*
X-192900D01*
X-192120Y287616D01*
X-191458Y288058D01*
X-191016Y288720D01*
X-190861Y289500D01*
Y309500D01*
X-191016Y310280D01*
X-191458Y310942D01*
X-192120Y311384D01*
X-192900Y311539D01*
D02*
G37*
G36*
X-13500Y311586D02*
X-16111Y311243D01*
X-18543Y310235D01*
X-20632Y308632D01*
X-22235Y306543D01*
X-23243Y304111D01*
X-23586Y301500D01*
Y297500D01*
X-23243Y294890D01*
X-22235Y292457D01*
X-20632Y290368D01*
X-18543Y288765D01*
X-16111Y287757D01*
X-13500Y287414D01*
X-10890Y287757D01*
X-8457Y288765D01*
X-6368Y290368D01*
X-4765Y292457D01*
X-3757Y294890D01*
X-3414Y297500D01*
Y301500D01*
X-3757Y304111D01*
X-4765Y306543D01*
X-6368Y308632D01*
X-8457Y310235D01*
X-10890Y311243D01*
X-13500Y311586D01*
D02*
G37*
G36*
X-94500Y311586D02*
X-97111Y311243D01*
X-99543Y310235D01*
X-101632Y308632D01*
X-103235Y306543D01*
X-104243Y304111D01*
X-104586Y301500D01*
Y297500D01*
X-104243Y294890D01*
X-103235Y292457D01*
X-101632Y290368D01*
X-99543Y288765D01*
X-97111Y287757D01*
X-94500Y287414D01*
X-91889Y287757D01*
X-89457Y288765D01*
X-87368Y290368D01*
X-85765Y292457D01*
X-84757Y294890D01*
X-84414Y297500D01*
Y301500D01*
X-84757Y304111D01*
X-85765Y306543D01*
X-87368Y308632D01*
X-89457Y310235D01*
X-91889Y311243D01*
X-94500Y311586D01*
D02*
G37*
G36*
X67600Y311586D02*
X64990Y311243D01*
X62557Y310235D01*
X60468Y308632D01*
X58865Y306543D01*
X57857Y304111D01*
X57514Y301500D01*
Y297500D01*
X57857Y294890D01*
X58865Y292457D01*
X60468Y290368D01*
X62557Y288765D01*
X64990Y287757D01*
X67600Y287414D01*
X70210Y287757D01*
X72643Y288765D01*
X74732Y290368D01*
X76335Y292457D01*
X77343Y294890D01*
X77686Y297500D01*
Y301500D01*
X77343Y304111D01*
X76335Y306543D01*
X74732Y308632D01*
X72643Y310235D01*
X70210Y311243D01*
X67600Y311586D01*
D02*
G37*
G36*
X50200Y311539D02*
X34200D01*
X33420Y311384D01*
X32758Y310942D01*
X32316Y310280D01*
X32161Y309500D01*
Y289500D01*
X32316Y288720D01*
X32758Y288058D01*
X33420Y287616D01*
X34200Y287461D01*
X50200D01*
X50980Y287616D01*
X51642Y288058D01*
X52084Y288720D01*
X52239Y289500D01*
Y309500D01*
X52084Y310280D01*
X51642Y310942D01*
X50980Y311384D01*
X50200Y311539D01*
D02*
G37*
G36*
X-298000Y12986D02*
X-302000D01*
X-304611Y12643D01*
X-307043Y11635D01*
X-309132Y10032D01*
X-310735Y7943D01*
X-311743Y5511D01*
X-312086Y2900D01*
X-311743Y290D01*
X-310735Y-2143D01*
X-309132Y-4232D01*
X-307043Y-5835D01*
X-304611Y-6843D01*
X-302000Y-7186D01*
X-298000D01*
X-295389Y-6843D01*
X-292957Y-5835D01*
X-290868Y-4232D01*
X-289265Y-2143D01*
X-288257Y290D01*
X-287914Y2900D01*
X-288257Y5511D01*
X-289265Y7943D01*
X-290868Y10032D01*
X-292957Y11635D01*
X-295389Y12643D01*
X-298000Y12986D01*
D02*
G37*
G36*
X-30900Y311539D02*
X-46900D01*
X-47680Y311384D01*
X-48342Y310942D01*
X-48784Y310280D01*
X-48939Y309500D01*
Y289500D01*
X-48784Y288720D01*
X-48342Y288058D01*
X-47680Y287616D01*
X-46900Y287461D01*
X-30900D01*
X-30120Y287616D01*
X-29458Y288058D01*
X-29016Y288720D01*
X-28861Y289500D01*
Y309500D01*
X-29016Y310280D01*
X-29458Y310942D01*
X-30120Y311384D01*
X-30900Y311539D01*
D02*
G37*
G36*
X-298000Y38386D02*
X-302000D01*
X-304611Y38043D01*
X-307043Y37035D01*
X-309132Y35432D01*
X-310735Y33343D01*
X-311743Y30910D01*
X-312086Y28300D01*
X-311743Y25689D01*
X-310735Y23257D01*
X-309132Y21168D01*
X-307043Y19565D01*
X-304611Y18557D01*
X-302000Y18214D01*
X-298000D01*
X-295389Y18557D01*
X-292957Y19565D01*
X-290868Y21168D01*
X-289265Y23257D01*
X-288257Y25689D01*
X-287914Y28300D01*
X-288257Y30910D01*
X-289265Y33343D01*
X-290868Y35432D01*
X-292957Y37035D01*
X-295389Y38043D01*
X-298000Y38386D01*
D02*
G37*
G36*
X-92500Y20098D02*
X-94451Y19710D01*
X-96105Y18605D01*
X-96129Y18569D01*
X-117500D01*
X-118866Y18297D01*
X-120023Y17523D01*
X-147457Y-9911D01*
X-147500Y-9902D01*
X-149451Y-10290D01*
X-151105Y-11395D01*
X-152210Y-13049D01*
X-152598Y-15000D01*
X-152210Y-16951D01*
X-151105Y-18605D01*
X-149451Y-19710D01*
X-147500Y-20098D01*
X-145549Y-19710D01*
X-143895Y-18605D01*
X-142790Y-16951D01*
X-142402Y-15000D01*
X-142411Y-14957D01*
X-116022Y11431D01*
X-96129D01*
X-96105Y11395D01*
X-94451Y10290D01*
X-92500Y9902D01*
X-90549Y10290D01*
X-88895Y11395D01*
X-87790Y13049D01*
X-87402Y15000D01*
X-87790Y16951D01*
X-88895Y18605D01*
X-90549Y19710D01*
X-92500Y20098D01*
D02*
G37*
%LPD*%
D28*
X-147500Y-15000D02*
X-117500Y15000D01*
X-92500D01*
X-39999Y-190000D02*
X-25000D01*
X-40000Y-190000D02*
X-39999Y-190000D01*
X-181000Y69000D02*
X-162000D01*
X-225000Y25000D02*
X-181000Y69000D01*
D31*
X83000Y-35000D02*
D03*
D32*
X167000D02*
D03*
D33*
X21500Y-265000D02*
D03*
X87500D02*
D03*
D34*
X312500Y112500D02*
D03*
Y137900D02*
D03*
Y163300D02*
D03*
Y188700D02*
D03*
X-222000Y-292400D02*
D03*
Y-267000D02*
D03*
Y-241600D02*
D03*
X-300000Y-73300D02*
D03*
Y-47900D02*
D03*
Y-22500D02*
D03*
Y2900D02*
D03*
Y28300D02*
D03*
D35*
X-69100Y299500D02*
D03*
X-94500D02*
D03*
X93000Y299500D02*
D03*
X67600D02*
D03*
X-150100D02*
D03*
X-175500D02*
D03*
X11900D02*
D03*
X-13500D02*
D03*
X227400Y300000D02*
D03*
X202000D02*
D03*
X176600D02*
D03*
X151200D02*
D03*
D36*
X-119900Y299500D02*
D03*
X42200Y299500D02*
D03*
X-200900D02*
D03*
X-38900D02*
D03*
D37*
X-301700Y-123600D02*
D03*
X-276300D02*
D03*
D38*
X-301700Y-149000D02*
D03*
X-276300D02*
D03*
Y-174400D02*
D03*
X-301700D02*
D03*
D39*
X-265000Y-277500D02*
D03*
X-247500Y237500D02*
D03*
X-153000Y-157000D02*
D03*
X-233000Y-135000D02*
D03*
X-245000Y-217000D02*
D03*
X-285000Y-216000D02*
D03*
X-239000Y-163000D02*
D03*
X-232000Y-86000D02*
D03*
X215000Y205000D02*
D03*
Y170000D02*
D03*
Y102500D02*
D03*
Y137500D02*
D03*
X157500Y17500D02*
D03*
X112500Y30000D02*
D03*
X-97500Y-280000D02*
D03*
Y-290000D02*
D03*
X-120000Y-250000D02*
D03*
X285000Y5000D02*
D03*
X-227500Y-42500D02*
D03*
Y-25000D02*
D03*
X-217500Y-87500D02*
D03*
X-72500Y-112500D02*
D03*
X12500Y-25000D02*
D03*
X20000Y65000D02*
D03*
Y40000D02*
D03*
X-55000Y52500D02*
D03*
Y92500D02*
D03*
X-40000Y7500D02*
D03*
X-7500Y65000D02*
D03*
X50000Y10000D02*
D03*
X50000Y-167500D02*
D03*
X175000Y110000D02*
D03*
X110000Y132500D02*
D03*
X-147500Y-15000D02*
D03*
X-92500Y15000D02*
D03*
X-200000Y-257500D02*
D03*
Y-295000D02*
D03*
X-52500Y-262500D02*
D03*
X-40000Y-190000D02*
D03*
X-25000Y-190000D02*
D03*
X-162000Y69000D02*
D03*
X-225000Y25000D02*
D03*
X42000Y-287000D02*
D03*
X66000Y-288000D02*
D03*
X1000Y-240000D02*
D03*
X111500Y-240500D02*
D03*
X67500Y-219000D02*
D03*
X-18000Y-44000D02*
D03*
X-46000Y-45000D02*
D03*
X115000Y-75000D02*
D03*
X-30000Y-282500D02*
D03*
X-120000Y-237500D02*
D03*
X-95000Y-262500D02*
D03*
X-242500Y155000D02*
D03*
X-70000Y-80000D02*
D03*
X-185000Y97500D02*
D03*
X-5000Y37500D02*
D03*
X330000Y-117500D02*
D03*
X-190000Y75000D02*
D03*
X65000Y25000D02*
D03*
X117500Y-190000D02*
D03*
M02*
